<svg width="45" height="50" viewBox="0 0 45 50" fill="none" xmlns="http://www.w3.org/2000/svg">
<path d="M44.1461 16.1845L23.5797 1.34494C22.8777 0.877397 22.1285 0.873117 21.4201 1.34494L0.853768 16.1845C0.326425 16.5649 0 17.2445 0 17.9239V32.7634C0 33.4429 0.326425 34.1224 0.853856 34.5029L21.4202 49.3446C22.1222 49.8121 22.8714 49.8164 23.5798 49.3446L44.1461 34.5029C44.6735 34.1225 45 33.4429 45 32.7634V17.9239C44.9999 17.2445 44.6735 16.5649 44.1461 16.1845ZM24.4335 6.99797L39.5758 17.9239L32.8208 22.8161L24.4335 16.7552V6.99797ZM20.5664 6.99797V16.7552L12.1791 22.8161L5.42407 17.9239L20.5664 6.99797ZM3.86718 21.8377L8.71372 25.3437L3.86718 28.8498V21.8377ZM20.5664 43.6895L5.42407 32.7635L12.1791 27.8713L20.5664 33.9322V43.6895ZM22.5 30.2902L15.6695 25.3437L22.5 20.3972L29.3304 25.3437L22.5 30.2902ZM24.4335 43.6895V33.9322L32.8208 27.8713L39.5758 32.7635L24.4335 43.6895ZM41.1327 28.8498L36.2862 25.3437L41.1327 21.8377V28.8498Z" fill="#27AE60"/>
</svg>
