<svg width="57" height="50" viewBox="0 0 57 50" fill="none" xmlns="http://www.w3.org/2000/svg">
<path d="M55.7752 23.8228L50.5706 15.0169C50.6819 14.7995 50.7655 14.5549 50.7655 14.2831C50.7655 13.4677 50.0697 12.7882 49.2347 12.761L43.4735 3.03104C43.5292 2.86798 43.5848 2.70492 43.5848 2.54187C43.5848 1.6722 42.8612 0.992676 41.9983 0.992676C41.4974 0.992676 41.0799 1.21012 40.7737 1.56343H29.6967C29.4184 1.21022 29.0009 0.992777 28.4999 0.992777C27.999 0.992777 27.5815 1.21022 27.3032 1.56353H16.2818C15.9756 1.21022 15.5582 0.992777 15.0572 0.992777C14.1944 0.992777 13.4707 1.6722 13.4707 2.54197C13.4707 2.70503 13.5264 2.89528 13.5821 3.03114L7.76518 12.897C7.20866 13.1416 6.81891 13.658 6.81891 14.2832C6.81891 14.3375 6.84675 14.3918 6.84675 14.4462L1.30817 23.7957C0.556726 23.9315 0 24.5567 0 25.3177C0 26.0515 0.528775 26.6766 1.25248 26.8397L6.98588 36.5153C6.93019 36.6784 6.90234 36.8142 6.90234 37.0045C6.90234 37.7383 7.43112 38.3634 8.15482 38.4993L13.5264 47.6041C13.4707 47.7672 13.4151 47.9574 13.4151 48.1477C13.4151 49.0173 14.1387 49.6968 15.0016 49.6968C15.5025 49.6968 15.92 49.4794 16.1984 49.1533H27.3033C27.5815 49.4793 28.0269 49.6967 28.4999 49.6967C28.973 49.6967 29.4184 49.4793 29.6967 49.1532H40.8295C41.1077 49.4521 41.5252 49.6424 41.9706 49.6424C42.8612 49.6424 43.557 48.9357 43.557 48.0932C43.557 47.9301 43.5293 47.7942 43.4736 47.6584L48.8452 38.4992C49.5688 38.3633 50.0977 37.7382 50.0977 37.0044C50.0977 36.8413 50.0698 36.6783 50.0141 36.5152L55.7197 26.8396C56.4433 26.7037 57 26.0786 57 25.3176C56.9998 24.5838 56.4709 23.9586 55.7752 23.8228ZM14.5283 45.1035L9.99177 37.4121H14.5283V45.1035ZM14.5283 36.5967H9.99177C9.96392 36.488 9.90823 36.3794 9.85264 36.2706L14.5283 31.4601V36.5967ZM14.5283 30.2641L9.29591 35.6726C9.15678 35.6183 9.01755 35.5367 8.87842 35.5096L3.08953 25.7253C3.14512 25.5894 3.14512 25.4534 3.14512 25.3176C3.14512 25.1817 3.14512 25.073 3.11727 24.9643L8.51672 15.8323C8.79509 15.8051 9.07335 15.7235 9.32386 15.5604L14.5284 20.8331V30.2641H14.5283ZM14.5283 19.8818L9.7691 15.0713C9.90823 14.8538 9.99177 14.5821 9.99177 14.2832C9.99177 14.256 9.96392 14.2016 9.96392 14.1744L14.5283 12.5708V19.8818ZM14.5283 11.7011L9.99177 13.3046L14.5283 5.64025V11.7011ZM48.4554 15.6692L48.539 15.8051L44.8651 32.7645L38.2411 25.9427L48.4276 15.642L48.4554 15.6692ZM28.8896 35.4008L30.0864 36.5967H27.7207L28.8896 35.4008ZM28.8617 34.2593L20.2061 25.5894L28.4721 17.0282L37.1 25.9155L28.8617 34.2593ZM29.4184 34.8573L37.6566 26.5135L44.6702 33.7429L44.058 36.5967H31.1718L29.4184 34.8573ZM41.2191 3.87372C41.3304 3.9281 41.4417 3.98249 41.5809 4.00968L47.5926 14.2288V14.2832C47.5926 14.5821 47.676 14.8538 47.8153 15.0713L37.6845 25.3448L29.0567 16.4574L41.2191 3.87372ZM40.2729 3.65628L28.4721 15.8595L22.5439 9.74427L39.8274 3.65628H40.2729ZM27.4423 3.65628C27.7206 3.928 28.0823 4.09106 28.4999 4.09106C28.9175 4.09106 29.2792 3.928 29.5576 3.65628H37.3505L21.9317 9.09194L16.6436 3.65628H27.4423ZM15.3634 4.22702L15.4747 4.00968C15.5686 3.98625 15.6614 3.95903 15.753 3.9281L21.0689 9.39106L15.3634 11.4022V4.22702ZM15.3634 12.2719L21.6811 10.0433L27.8876 16.4574L19.6216 24.9915L15.3634 20.7245V12.2719ZM15.3634 21.6756L19.1484 25.5078L15.3634 29.3944V21.6756ZM15.3634 30.5903L19.7329 26.0787L28.333 34.803L26.5517 36.5967H15.3634V30.5903ZM16.087 47.0332C15.92 46.8702 15.7252 46.7615 15.4747 46.6799L15.3634 46.5169V37.4121H25.7446L16.2261 47.0332H16.087ZM29.5854 47.0332C29.3071 46.7887 28.9175 46.5985 28.4999 46.5985C28.0823 46.5985 27.6929 46.7887 27.4144 47.0332H17.3949L26.9134 37.4121H30.8934L40.4119 47.0332H29.5854ZM42.0541 45.8374L41.6088 46.5984C41.4697 46.6255 41.3584 46.6798 41.247 46.7342L31.979 37.412H43.8633L42.0541 45.8374ZM43.3899 43.5816L44.7259 37.4121H47.0081L43.3899 43.5816ZM47.0081 36.5967H44.8929L45.366 34.4497L47.1473 36.2978C47.0917 36.3792 47.036 36.4879 47.0081 36.5967ZM53.8826 25.6981L48.1214 35.5096C47.9822 35.5639 47.843 35.6183 47.7039 35.6997L45.5608 33.4711L49.1512 16.8379L53.9104 24.8828C53.8826 25.0186 53.8269 25.1545 53.8269 25.3176C53.8269 25.4534 53.8548 25.5622 53.8826 25.6981Z" fill="#27AE60"/>
</svg>
