<svg width="5" height="15" viewBox="0 0 5 15" fill="none" xmlns="http://www.w3.org/2000/svg">
<path d="M1.48422 9.3L0.944219 4V-9.53674e-07H4.04422V4L3.52422 9.3H1.48422ZM3.70422 13.76C3.37089 14.0933 2.97089 14.26 2.50422 14.26C2.03755 14.26 1.63755 14.0933 1.30422 13.76C0.970885 13.4267 0.804219 13.0267 0.804219 12.56C0.804219 12.0933 0.970885 11.6933 1.30422 11.36C1.63755 11.0267 2.03755 10.86 2.50422 10.86C2.97089 10.86 3.37089 11.0267 3.70422 11.36C4.03755 11.6933 4.20422 12.0933 4.20422 12.56C4.20422 13.0267 4.03755 13.4267 3.70422 13.76Z" fill="url(#paint0_linear_104_12)"/>
<defs>
<linearGradient id="paint0_linear_104_12" x1="2.37495" y1="-13" x2="-15.3126" y2="12.2511" gradientUnits="userSpaceOnUse">
<stop stop-color="#F15B3A"/>
<stop offset="1" stop-color="#C21A1A"/>
</linearGradient>
</defs>
</svg>
