<svg width="25" height="28" viewBox="0 0 25 28" fill="none" xmlns="http://www.w3.org/2000/svg">
<path d="M20.7467 3.96014C20.64 3.96014 20.5333 3.93348 20.44 3.88014C17.88 2.56014 15.6667 2.00014 13.0133 2.00014C10.3733 2.00014 7.86667 2.62681 5.58667 3.88014C5.26667 4.05348 4.86667 3.93348 4.68 3.61348C4.50667 3.29348 4.62667 2.88014 4.94667 2.70681C7.42667 1.36014 10.1467 0.666809 13.0133 0.666809C15.8533 0.666809 18.3333 1.29348 21.0533 2.69348C21.3867 2.86681 21.5067 3.26681 21.3333 3.58681C21.2133 3.82681 20.9867 3.96014 20.7467 3.96014ZM1.66667 10.9601C1.53333 10.9601 1.4 10.9201 1.28 10.8401C0.973334 10.6268 0.906667 10.2135 1.12 9.90681C2.44 8.04014 4.12 6.57348 6.12 5.54681C10.3067 3.38681 15.6667 3.37348 19.8667 5.53348C21.8667 6.56014 23.5467 8.01348 24.8667 9.86681C25.08 10.1601 25.0133 10.5868 24.7067 10.8001C24.4 11.0135 23.9867 10.9468 23.7733 10.6401C22.5733 8.96014 21.0533 7.64014 19.2533 6.72014C15.4267 4.76014 10.5333 4.76014 6.72 6.73348C4.90667 7.66681 3.38667 9.00014 2.18667 10.6801C2.08 10.8668 1.88 10.9601 1.66667 10.9601ZM10 27.0535C9.82667 27.0535 9.65333 26.9868 9.53333 26.8535C8.37333 25.6935 7.74667 24.9468 6.85333 23.3335C5.93333 21.6935 5.45333 19.6935 5.45333 17.5468C5.45333 13.5868 8.84 10.3601 13 10.3601C17.16 10.3601 20.5467 13.5868 20.5467 17.5468C20.5467 17.9201 20.2533 18.2135 19.88 18.2135C19.5067 18.2135 19.2133 17.9201 19.2133 17.5468C19.2133 14.3201 16.4267 11.6935 13 11.6935C9.57333 11.6935 6.78667 14.3201 6.78667 17.5468C6.78667 19.4668 7.21334 21.2401 8.02667 22.6801C8.88 24.2135 9.46667 24.8668 10.4933 25.9068C10.7467 26.1735 10.7467 26.5868 10.4933 26.8535C10.3467 26.9868 10.1733 27.0535 10 27.0535ZM19.56 24.5868C17.9733 24.5868 16.5733 24.1868 15.4267 23.4001C13.44 22.0535 12.2533 19.8668 12.2533 17.5468C12.2533 17.1735 12.5467 16.8801 12.92 16.8801C13.2933 16.8801 13.5867 17.1735 13.5867 17.5468C13.5867 19.4268 14.5467 21.2001 16.1733 22.2935C17.12 22.9335 18.2267 23.2402 19.56 23.2402C19.88 23.2402 20.4133 23.2001 20.9467 23.1068C21.3067 23.0401 21.6533 23.2801 21.72 23.6535C21.7867 24.0135 21.5467 24.3601 21.1733 24.4268C20.4133 24.5735 19.7467 24.5868 19.56 24.5868ZM16.88 27.3335C16.8267 27.3335 16.76 27.3202 16.7067 27.3068C14.5867 26.7201 13.2 25.9335 11.7467 24.5068C9.88 22.6535 8.85334 20.1868 8.85334 17.5468C8.85334 15.3868 10.6933 13.6268 12.96 13.6268C15.2267 13.6268 17.0667 15.3868 17.0667 17.5468C17.0667 18.9735 18.3067 20.1335 19.84 20.1335C21.3733 20.1335 22.6133 18.9735 22.6133 17.5468C22.6133 12.5201 18.28 8.44014 12.9467 8.44014C9.16 8.44014 5.69333 10.5468 4.13333 13.8135C3.61333 14.8935 3.34667 16.1601 3.34667 17.5468C3.34667 18.5868 3.44 20.2268 4.24 22.3601C4.37333 22.7068 4.2 23.0935 3.85333 23.2135C3.50667 23.3468 3.12 23.1602 3 22.8268C2.34667 21.0802 2.02667 19.3468 2.02667 17.5468C2.02667 15.9468 2.33333 14.4935 2.93333 13.2268C4.70667 9.50681 8.64 7.09348 12.9467 7.09348C19.0133 7.09348 23.9467 11.7735 23.9467 17.5335C23.9467 19.6935 22.1067 21.4535 19.84 21.4535C17.5733 21.4535 15.7333 19.6935 15.7333 17.5335C15.7333 16.1068 14.4933 14.9468 12.96 14.9468C11.4267 14.9468 10.1867 16.1068 10.1867 17.5335C10.1867 19.8135 11.0667 21.9468 12.68 23.5468C13.9467 24.8001 15.16 25.4935 17.04 26.0135C17.4 26.1068 17.6 26.4802 17.5067 26.8268C17.44 27.1335 17.16 27.3335 16.88 27.3335Z" fill="white"/>
</svg>
