<svg width="25" height="25" viewBox="0 0 25 25" fill="none" xmlns="http://www.w3.org/2000/svg">
<path d="M10.8401 3.23126C11.6738 2.13182 13.3266 2.13182 14.1603 3.23126L15.2014 4.60438C15.4289 4.90433 15.8004 5.05824 16.1734 5.00697L17.8805 4.77224C19.2474 4.5843 20.4162 5.75302 20.2282 7.11993L19.9935 8.8271C19.9422 9.20001 20.0961 9.57158 20.3961 9.79902L21.7692 10.8402C22.8686 11.6738 22.8686 13.3267 21.7692 14.1603L20.3961 15.2015C20.0961 15.4289 19.9422 15.8005 19.9935 16.1734L20.2282 17.8806C20.4162 19.2475 19.2474 20.4162 17.8805 20.2283L16.1734 19.9936C15.8004 19.9423 15.4289 20.0962 15.2014 20.3961L14.1603 21.7693C13.3266 22.8687 11.6738 22.8687 10.8401 21.7693L9.79896 20.3961C9.57152 20.0962 9.19995 19.9423 8.82704 19.9936L7.11987 20.2283C5.75296 20.4162 4.58424 19.2475 4.77218 17.8806L5.00691 16.1734C5.05818 15.8005 4.90427 15.4289 4.60432 15.2015L3.2312 14.1603C2.13175 13.3267 2.13175 11.6738 3.2312 10.8402L4.60432 9.79902C4.90427 9.57158 5.05818 9.20001 5.00691 8.8271L4.77218 7.11993C4.58424 5.75302 5.75296 4.5843 7.11987 4.77224L8.82704 5.00697C9.19995 5.05824 9.57152 4.90433 9.79896 4.60438L10.8401 3.23126Z" fill="url(#paint0_linear_7_94)"/>
<path d="M15.3199 11.1532L11.1532 15.3199C10.7464 15.7267 10.0869 15.7267 9.6801 15.3199C9.2733 14.9131 9.2733 14.2536 9.6801 13.8468L13.8468 9.6801C14.2536 9.2733 14.9131 9.2733 15.3199 9.6801C15.7267 10.0869 15.7267 10.7464 15.3199 11.1532Z" fill="#525458"/>
<path d="M11.4583 10.4167C11.4583 10.992 10.992 11.4583 10.4167 11.4583C9.84137 11.4583 9.375 10.992 9.375 10.4167C9.375 9.84137 9.84137 9.375 10.4167 9.375C10.992 9.375 11.4583 9.84137 11.4583 10.4167Z" fill="#525458"/>
<path d="M13.5417 14.5833C13.5417 15.1586 14.008 15.625 14.5833 15.625C15.1586 15.625 15.625 15.1586 15.625 14.5833C15.625 14.008 15.1586 13.5417 14.5833 13.5417C14.008 13.5417 13.5417 14.008 13.5417 14.5833Z" fill="#525458"/>
<defs>
<linearGradient id="paint0_linear_7_94" x1="2.40662" y1="12.5003" x2="22.6877" y2="12.5003" gradientUnits="userSpaceOnUse">
<stop stop-color="#0171FE"/>
<stop offset="1" stop-color="#3BC1FE"/>
</linearGradient>
</defs>
</svg>
