<svg width="25" height="25" viewBox="0 0 25 25" fill="none" xmlns="http://www.w3.org/2000/svg">
<path d="M3.125 14.5833C3.125 14.008 3.59137 13.5417 4.16667 13.5417H20.8333C21.4086 13.5417 21.875 14.008 21.875 14.5833V19.7917C21.875 21.5175 20.4759 22.9167 18.75 22.9167H6.25C4.52411 22.9167 3.125 21.5175 3.125 19.7917V14.5833Z" fill="url(#paint0_linear_7_90)"/>
<path d="M2.08337 8.33333C2.08337 7.18274 3.01611 6.25 4.16671 6.25H20.8334C21.984 6.25 22.9167 7.18274 22.9167 8.33333V9.375C22.9167 10.5256 21.984 11.4583 20.8334 11.4583H4.16671C3.01611 11.4583 2.08337 10.5256 2.08337 9.375V8.33333Z" fill="url(#paint1_linear_7_90)"/>
<path fill-rule="evenodd" clip-rule="evenodd" d="M7.29163 5.20834C7.29163 6.93423 8.69074 8.33334 10.4166 8.33334H11.4583V10.9375C11.4583 11.2252 11.6915 11.4583 11.9791 11.4583H13.0208C13.3084 11.4583 13.5416 11.2252 13.5416 10.9375V8.33334H14.5833C16.3092 8.33334 17.7083 6.93423 17.7083 5.20834C17.7083 3.48245 16.3092 2.08334 14.5833 2.08334C13.7829 2.08334 13.0528 2.38423 12.5 2.87907C11.9471 2.38423 11.217 2.08334 10.4166 2.08334C8.69074 2.08334 7.29163 3.48245 7.29163 5.20834ZM10.9375 6.25001C11.2251 6.25001 11.4583 6.01683 11.4583 5.72918V5.20834C11.4583 4.63305 10.9919 4.16668 10.4166 4.16668C9.84133 4.16668 9.37496 4.63305 9.37496 5.20834C9.37496 5.78364 9.84133 6.25001 10.4166 6.25001H10.9375ZM14.0625 6.25001C13.7748 6.25001 13.5416 6.01683 13.5416 5.72918V5.20834C13.5416 4.63305 14.008 4.16668 14.5833 4.16668C15.1586 4.16668 15.625 4.63305 15.625 5.20834C15.625 5.78364 15.1586 6.25001 14.5833 6.25001H14.0625Z" fill="#525458"/>
<path d="M11.4583 14.0625C11.4583 13.7749 11.6915 13.5417 11.9791 13.5417H13.0208C13.3084 13.5417 13.5416 13.7749 13.5416 14.0625V22.3958C13.5416 22.6835 13.3084 22.9167 13.0208 22.9167H11.9791C11.6915 22.9167 11.4583 22.6835 11.4583 22.3958V14.0625Z" fill="#525458"/>
<defs>
<linearGradient id="paint0_linear_7_90" x1="3.125" y1="18.2292" x2="21.9622" y2="18.2292" gradientUnits="userSpaceOnUse">
<stop stop-color="#0171FE"/>
<stop offset="1" stop-color="#3BC1FE"/>
</linearGradient>
<linearGradient id="paint1_linear_7_90" x1="2.08337" y1="8.85417" x2="23.0136" y2="8.85417" gradientUnits="userSpaceOnUse">
<stop stop-color="#0171FE"/>
<stop offset="1" stop-color="#3BC1FE"/>
</linearGradient>
</defs>
</svg>
