<svg width="25" height="25" viewBox="0 0 25 25" fill="none" xmlns="http://www.w3.org/2000/svg">
<path d="M21.875 5.20834C23.0256 5.20834 23.9584 6.14108 23.9584 7.29168L23.9584 8.08743C23.9584 8.87654 23.4908 9.58712 22.9303 10.1427C22.405 10.6635 21.875 11.4492 21.875 12.5C21.875 13.5508 22.405 14.3365 22.9303 14.8573C23.4907 15.4129 23.9584 16.1235 23.9584 16.9126L23.9584 17.7083C23.9584 18.8589 23.0256 19.7917 21.875 19.7917L3.12504 19.7917C1.97445 19.7917 1.04171 18.8589 1.04171 17.7083L1.04171 16.9126C1.04171 16.1235 1.50934 15.4129 2.06975 14.8573C2.59508 14.3365 3.12504 13.5508 3.12504 12.5C3.12504 11.4492 2.59508 10.6635 2.06975 10.1427C1.50934 9.58712 1.04171 8.87654 1.04171 8.08742L1.04171 7.2917C1.04171 6.14111 1.97445 5.20837 3.12504 5.20837L21.875 5.20834Z" fill="url(#paint0_linear_15_7)"/>
<path d="M15.3199 11.1532L11.1532 15.3199C10.7464 15.7267 10.0869 15.7267 9.6801 15.3199C9.2733 14.9131 9.2733 14.2536 9.6801 13.8468L13.8468 9.6801C14.2536 9.2733 14.9131 9.2733 15.3199 9.6801C15.7267 10.0869 15.7267 10.7464 15.3199 11.1532Z" fill="#525458"/>
<path d="M11.4583 10.4167C11.4583 10.992 10.992 11.4583 10.4167 11.4583C9.84137 11.4583 9.375 10.992 9.375 10.4167C9.375 9.84137 9.84137 9.375 10.4167 9.375C10.992 9.375 11.4583 9.84137 11.4583 10.4167Z" fill="#525458"/>
<path d="M13.5417 14.5833C13.5417 15.1586 14.008 15.625 14.5833 15.625C15.1586 15.625 15.625 15.1586 15.625 14.5833C15.625 14.008 15.1586 13.5417 14.5833 13.5417C14.008 13.5417 13.5417 14.008 13.5417 14.5833Z" fill="#525458"/>
<defs>
<linearGradient id="paint0_linear_15_7" x1="1" y1="13" x2="24" y2="13" gradientUnits="userSpaceOnUse">
<stop stop-color="#0171FE"/>
<stop offset="1" stop-color="#3BC1FE"/>
</linearGradient>
</defs>
</svg>
