<svg width="132" height="30" viewBox="0 0 132 30" fill="none" xmlns="http://www.w3.org/2000/svg">
<path fill-rule="evenodd" clip-rule="evenodd" d="M40 30C33.3333 25 6.66667 25 0 30C6.66667 25 6.66667 5 0 0C6.66667 5 33.3333 5 40 0C33.3333 5 33.3333 25 40 30Z" fill="url(#paint0_linear_30_10)"/>
<path d="M40.096 12.908H42.304V20H43.732V12.908H45.952V11.6H40.096V12.908ZM48.0629 15.668H49.5149C50.0429 15.668 50.5069 15.592 50.9069 15.44C51.3149 15.288 51.6309 15.068 51.8549 14.78C52.0869 14.484 52.2029 14.128 52.2029 13.712C52.2029 13.232 52.0869 12.836 51.8549 12.524C51.6309 12.212 51.3149 11.98 50.9069 11.828C50.5069 11.676 50.0429 11.6 49.5149 11.6H46.9829V20H49.6589C50.2509 20 50.7709 19.916 51.2189 19.748C51.6749 19.572 52.0309 19.304 52.2869 18.944C52.5509 18.584 52.6829 18.128 52.6829 17.576C52.6829 17.176 52.6029 16.832 52.4429 16.544C52.2829 16.256 52.0589 16.02 51.7709 15.836C51.4909 15.652 51.1709 15.516 50.8109 15.428C50.4509 15.34 50.0669 15.296 49.6589 15.296H48.0629V16.076H49.5749C49.8149 16.076 50.0349 16.104 50.2349 16.16C50.4349 16.208 50.6069 16.292 50.7509 16.412C50.9029 16.524 51.0189 16.668 51.0989 16.844C51.1869 17.012 51.2309 17.208 51.2309 17.432C51.2309 17.744 51.1589 18.004 51.0149 18.212C50.8709 18.42 50.6749 18.576 50.4269 18.68C50.1789 18.784 49.8949 18.836 49.5749 18.836H48.3989V12.764H49.4189C49.8109 12.764 50.1309 12.86 50.3789 13.052C50.6269 13.244 50.7509 13.516 50.7509 13.868C50.7509 14.1 50.6949 14.3 50.5829 14.468C50.4709 14.628 50.3149 14.752 50.1149 14.84C49.9149 14.928 49.6829 14.972 49.4189 14.972H48.0629V15.668ZM55.1982 15.8C55.1982 15.224 55.3182 14.712 55.5582 14.264C55.8062 13.808 56.1462 13.452 56.5782 13.196C57.0102 12.94 57.5022 12.812 58.0542 12.812C58.6222 12.812 59.1182 12.94 59.5422 13.196C59.9742 13.452 60.3102 13.808 60.5502 14.264C60.7902 14.712 60.9102 15.224 60.9102 15.8C60.9102 16.376 60.7862 16.892 60.5382 17.348C60.2982 17.796 59.9622 18.148 59.5302 18.404C59.1062 18.66 58.6142 18.788 58.0542 18.788C57.5022 18.788 57.0102 18.66 56.5782 18.404C56.1462 18.148 55.8062 17.796 55.5582 17.348C55.3182 16.892 55.1982 16.376 55.1982 15.8ZM53.6982 15.8C53.6982 16.424 53.8062 17.004 54.0222 17.54C54.2382 18.076 54.5382 18.54 54.9222 18.932C55.3142 19.324 55.7782 19.632 56.3142 19.856C56.8502 20.072 57.4302 20.18 58.0542 20.18C58.6862 20.18 59.2662 20.072 59.7942 19.856C60.3302 19.632 60.7942 19.324 61.1862 18.932C61.5782 18.54 61.8822 18.076 62.0982 17.54C62.3142 17.004 62.4222 16.424 62.4222 15.8C62.4222 15.168 62.3142 14.588 62.0982 14.06C61.8822 13.532 61.5742 13.076 61.1742 12.692C60.7822 12.3 60.3222 11.996 59.7942 11.78C59.2662 11.564 58.6862 11.456 58.0542 11.456C57.4382 11.456 56.8622 11.564 56.3262 11.78C55.7982 11.996 55.3342 12.3 54.9342 12.692C54.5422 13.076 54.2382 13.532 54.0222 14.06C53.8062 14.588 53.6982 15.168 53.6982 15.8ZM71.2633 13.124L71.3233 11.18L63.8593 18.476L63.7993 20.42L71.2633 13.124ZM65.1913 11.6H63.7993V20.42L65.1913 18.836V11.6ZM71.3233 11.18L69.9313 12.8V20H71.3233V11.18ZM65.9473 9.08C65.9473 9.376 66.0193 9.656 66.1633 9.92C66.3073 10.176 66.5233 10.388 66.8113 10.556C67.0993 10.716 67.4513 10.796 67.8673 10.796C68.2913 10.796 68.6473 10.716 68.9353 10.556C69.2233 10.388 69.4393 10.176 69.5833 9.92C69.7273 9.656 69.7993 9.376 69.7993 9.08H68.8153C68.8153 9.2 68.7833 9.324 68.7193 9.452C68.6633 9.58 68.5633 9.688 68.4193 9.776C68.2833 9.864 68.0993 9.908 67.8673 9.908C67.6433 9.908 67.4593 9.864 67.3153 9.776C67.1793 9.688 67.0793 9.58 67.0153 9.452C66.9593 9.324 66.9313 9.2 66.9313 9.08H65.9473ZM82.4477 12.224V20H83.1077V11.6H76.8077V20H77.4677V12.224H82.4477ZM85.2865 15.8C85.2865 15.096 85.4345 14.472 85.7305 13.928C86.0345 13.376 86.4465 12.944 86.9665 12.632C87.4945 12.312 88.0945 12.152 88.7665 12.152C89.4385 12.152 90.0345 12.312 90.5545 12.632C91.0825 12.944 91.4945 13.376 91.7905 13.928C92.0865 14.472 92.2345 15.096 92.2345 15.8C92.2345 16.496 92.0865 17.12 91.7905 17.672C91.4945 18.224 91.0825 18.66 90.5545 18.98C90.0345 19.292 89.4385 19.448 88.7665 19.448C88.0945 19.448 87.4945 19.292 86.9665 18.98C86.4465 18.66 86.0345 18.224 85.7305 17.672C85.4345 17.12 85.2865 16.496 85.2865 15.8ZM84.5905 15.8C84.5905 16.416 84.6945 16.988 84.9025 17.516C85.1105 18.036 85.4025 18.492 85.7785 18.884C86.1545 19.268 86.5945 19.568 87.0985 19.784C87.6105 20 88.1665 20.108 88.7665 20.108C89.3665 20.108 89.9185 20 90.4225 19.784C90.9345 19.568 91.3785 19.268 91.7545 18.884C92.1305 18.492 92.4225 18.036 92.6305 17.516C92.8385 16.988 92.9425 16.416 92.9425 15.8C92.9425 15.184 92.8385 14.616 92.6305 14.096C92.4225 13.568 92.1305 13.112 91.7545 12.728C91.3785 12.336 90.9345 12.032 90.4225 11.816C89.9185 11.6 89.3665 11.492 88.7665 11.492C88.1665 11.492 87.6105 11.6 87.0985 11.816C86.5945 12.032 86.1545 12.336 85.7785 12.728C85.4025 13.112 85.1105 13.568 84.9025 14.096C84.6945 14.616 84.5905 15.184 84.5905 15.8ZM93.3477 12.224H95.5557V20H96.2157V12.224H98.4237V11.6H93.3477V12.224ZM99.3842 15.8C99.3842 15.096 99.5322 14.472 99.8282 13.928C100.132 13.376 100.544 12.944 101.064 12.632C101.592 12.312 102.192 12.152 102.864 12.152C103.536 12.152 104.132 12.312 104.652 12.632C105.18 12.944 105.592 13.376 105.888 13.928C106.184 14.472 106.332 15.096 106.332 15.8C106.332 16.496 106.184 17.12 105.888 17.672C105.592 18.224 105.18 18.66 104.652 18.98C104.132 19.292 103.536 19.448 102.864 19.448C102.192 19.448 101.592 19.292 101.064 18.98C100.544 18.66 100.132 18.224 99.8282 17.672C99.5322 17.12 99.3842 16.496 99.3842 15.8ZM98.6882 15.8C98.6882 16.416 98.7922 16.988 99.0002 17.516C99.2082 18.036 99.5002 18.492 99.8762 18.884C100.252 19.268 100.692 19.568 101.196 19.784C101.708 20 102.264 20.108 102.864 20.108C103.464 20.108 104.016 20 104.52 19.784C105.032 19.568 105.476 19.268 105.852 18.884C106.228 18.492 106.52 18.036 106.728 17.516C106.936 16.988 107.04 16.416 107.04 15.8C107.04 15.184 106.936 14.616 106.728 14.096C106.52 13.568 106.228 13.112 105.852 12.728C105.476 12.336 105.032 12.032 104.52 11.816C104.016 11.6 103.464 11.492 102.864 11.492C102.264 11.492 101.708 11.6 101.196 11.816C100.692 12.032 100.252 12.336 99.8762 12.728C99.5002 13.112 99.2082 13.568 99.0002 14.096C98.7922 14.616 98.6882 15.184 98.6882 15.8ZM114.361 11.6H108.877V16.976C108.877 17.296 108.853 17.604 108.805 17.9C108.757 18.188 108.685 18.448 108.589 18.68C108.493 18.912 108.377 19.096 108.241 19.232C108.105 19.36 107.945 19.424 107.761 19.424V20C108.137 20 108.453 19.868 108.709 19.604C108.973 19.34 109.169 18.988 109.297 18.548C109.433 18.108 109.501 17.632 109.501 17.12V12.224H113.701V20H114.361V11.6ZM116.54 15.8C116.54 15.096 116.688 14.472 116.984 13.928C117.288 13.376 117.7 12.944 118.22 12.632C118.748 12.312 119.348 12.152 120.02 12.152C120.692 12.152 121.288 12.312 121.808 12.632C122.336 12.944 122.748 13.376 123.044 13.928C123.34 14.472 123.488 15.096 123.488 15.8C123.488 16.496 123.34 17.12 123.044 17.672C122.748 18.224 122.336 18.66 121.808 18.98C121.288 19.292 120.692 19.448 120.02 19.448C119.348 19.448 118.748 19.292 118.22 18.98C117.7 18.66 117.288 18.224 116.984 17.672C116.688 17.12 116.54 16.496 116.54 15.8ZM115.844 15.8C115.844 16.416 115.948 16.988 116.156 17.516C116.364 18.036 116.656 18.492 117.032 18.884C117.408 19.268 117.848 19.568 118.352 19.784C118.864 20 119.42 20.108 120.02 20.108C120.62 20.108 121.172 20 121.676 19.784C122.188 19.568 122.632 19.268 123.008 18.884C123.384 18.492 123.676 18.036 123.884 17.516C124.092 16.988 124.196 16.416 124.196 15.8C124.196 15.184 124.092 14.616 123.884 14.096C123.676 13.568 123.384 13.112 123.008 12.728C122.632 12.336 122.188 12.032 121.676 11.816C121.172 11.6 120.62 11.492 120.02 11.492C119.42 11.492 118.864 11.6 118.352 11.816C117.848 12.032 117.408 12.336 117.032 12.728C116.656 13.112 116.364 13.568 116.156 14.096C115.948 14.616 115.844 15.184 115.844 15.8ZM125.781 11.6V20H126.441V11.6H125.781ZM129.921 11.6L126.249 15.548L130.101 20H130.941L127.065 15.536L130.761 11.6H129.921Z" fill="url(#paint1_linear_30_10)"/>
<defs>
<linearGradient id="paint0_linear_30_10" x1="1.49012e-07" y1="15" x2="40.186" y2="15" gradientUnits="userSpaceOnUse">
<stop stop-color="#0171FE"/>
<stop offset="1" stop-color="#3BC1FE"/>
<stop offset="1" stop-color="#3BC1FE"/>
</linearGradient>
<linearGradient id="paint1_linear_30_10" x1="40" y1="15.5" x2="128.206" y2="15.5" gradientUnits="userSpaceOnUse">
<stop stop-color="#0171FE"/>
<stop offset="0.354446" stop-color="#3BC1FE"/>
<stop offset="1" stop-color="#0171FE"/>
</linearGradient>
</defs>
</svg>
