<svg width="24" height="24" viewBox="0 0 24 24" fill="none" xmlns="http://www.w3.org/2000/svg">
<path fill-rule="evenodd" clip-rule="evenodd" d="M0 11.9997C0 5.38241 5.38267 0 12 0C18.6173 0 24 5.38241 24 11.9997C24 18.6171 18.6172 24 12 24C9.77789 24 7.61148 23.3885 5.72507 22.231L0.366919 23.8797L0.704965 22.6417C1.12494 21.1035 1.5894 19.425 1.87114 18.4384C0.646312 16.5157 0 14.2923 0 11.9997ZM5.75879 20.7978C5.64035 20.7978 5.52321 20.8153 5.41104 20.8502L2.40603 21.7748C2.73498 20.5792 3.05394 19.4335 3.25657 18.7268C3.35335 18.4079 3.2996 18.0506 3.11524 17.763C1.99932 16.0454 1.41147 14.0554 1.41147 11.9994C1.41147 6.16184 6.16205 1.41149 11.9997 1.41149C17.8374 1.41149 22.5879 6.16184 22.5879 11.9994C22.5879 17.8371 17.8372 22.5879 11.9997 22.5879C10.0062 22.5879 8.06505 22.0308 6.38101 20.9765C6.19456 20.8602 5.97804 20.7978 5.75879 20.7978ZM1.8942 18.3651C1.89517 18.3562 1.89731 18.3471 1.89976 18.3382C1.89741 18.3472 1.89555 18.3562 1.8942 18.3651ZM7.98598 5.34186C8.21979 5.35244 8.4781 5.36414 8.72353 5.95294H8.72292C8.89306 6.36032 9.18015 7.12307 9.40649 7.72442L9.40651 7.72449L9.40652 7.72451L9.40652 7.72453L9.40664 7.72483C9.56905 8.15634 9.70015 8.50466 9.73427 8.57878C9.81656 8.75556 9.87121 8.96213 9.76129 9.19784C9.7458 9.23152 9.73141 9.26338 9.71765 9.29387L9.71756 9.29406C9.63476 9.47741 9.57454 9.61078 9.434 9.78842C9.37853 9.85808 9.32116 9.93327 9.2638 10.0085L9.26378 10.0085C9.1516 10.1555 9.03944 10.3026 8.94152 10.4081C8.77757 10.5836 8.60686 10.7756 8.79783 11.1291C8.98942 11.4834 9.64769 12.6414 10.6228 13.5789C11.672 14.5871 12.5823 15.0127 13.0444 15.2288C13.1346 15.2709 13.2077 15.3051 13.2614 15.3341C13.5893 15.5115 13.7803 15.4817 13.9719 15.2454C14.1629 15.0097 14.7917 14.2132 15.0103 13.8589C15.2295 13.5047 15.4475 13.5637 15.7484 13.6815C16.0492 13.8 17.6624 14.6561 17.9903 14.8322C18.0547 14.8671 18.1149 14.8985 18.1707 14.9276C18.3988 15.0468 18.553 15.1272 18.6191 15.2454C18.7008 15.393 18.7008 16.1008 18.4275 16.9264C18.1542 17.7527 16.815 18.5492 16.2132 18.6081C16.1552 18.6138 16.0976 18.6211 16.0383 18.6286C15.4828 18.6992 14.781 18.7884 12.2765 17.7229C9.19825 16.4149 7.16776 13.173 6.74452 12.4973C6.7093 12.441 6.68522 12.4026 6.67257 12.3845L6.66708 12.3765C6.4846 12.1127 5.33331 10.4481 5.33331 8.72577C5.33331 7.09631 6.07705 6.24204 6.41891 5.84938C6.44195 5.82291 6.46317 5.79853 6.48222 5.77616C6.78249 5.42194 7.13742 5.33322 7.35602 5.33322L7.39715 5.33322C7.60249 5.33318 7.80583 5.33314 7.98543 5.34183L7.98598 5.34186ZM8.46939 10.1439C8.46988 10.1399 8.47025 10.1359 8.47052 10.1319L8.46939 10.1439ZM8.47052 10.1319C8.47082 10.1273 8.47097 10.1227 8.47097 10.1181L8.47101 10.1266L8.47052 10.1319ZM8.39645 10.2888C8.39783 10.2875 8.39918 10.2861 8.40052 10.2848C8.39917 10.2861 8.39781 10.2875 8.39645 10.2888ZM8.41922 10.2632C8.41423 10.2706 8.40752 10.2777 8.40052 10.2848C8.4072 10.2779 8.41344 10.2707 8.41922 10.2632Z" fill="#25D366"/>
</svg>
