<svg width="346" height="290" viewBox="0 0 346 290" fill="none" xmlns="http://www.w3.org/2000/svg">
<path d="M173 1.5V144.5L274 43C243.097 16.6502 222.668 5.56237 173 1.5Z" fill="url(#paint0_linear_103_315)"/>
<path d="M172.5 287V144L273.5 245.5C242.597 271.85 222.168 282.938 172.5 287Z" fill="white"/>
<path d="M273.5 245.5L172.5 144.418L316 144.5C312.78 184.984 305.748 207.507 273.5 245.5Z" fill="url(#paint1_linear_103_315)"/>
<path d="M71.5 245.5L173.25 143.709L30 144.5C33.2195 184.984 39.2519 207.507 71.5 245.5Z" fill="white"/>
<path d="M71.5 42.9999L173 144.5H30C33.2195 104.016 39.2519 80.9931 71.5 42.9999Z" fill="url(#paint2_linear_103_315)"/>
<path d="M173.5 2V145L72 43.5C102.903 17.1502 123.832 6.06237 173.5 2Z" fill="white"/>
<path d="M274 42.9999L173 144.5L316 144.5C312.78 104.016 306.248 80.9931 274 42.9999Z" fill="white"/>
<path d="M173 287V144L71.5 245.5C102.403 271.85 123.332 282.938 173 287Z" fill="url(#paint3_linear_103_315)"/>
<g filter="url(#filter0_i_103_315)">
<circle cx="173.5" cy="145" r="143" stroke="url(#paint4_linear_103_315)" stroke-width="4"/>
</g>
<g filter="url(#filter1_i_103_315)">
<circle cx="173.5" cy="145" r="5" fill="url(#paint5_linear_103_315)"/>
</g>
<path d="M184.544 100.318L185.168 99.0073L188.321 100.507L186.508 96.1899L187.24 94.6511L189.274 99.5386L194.903 98.0971L194.156 99.6683L189.221 100.935L192.753 102.616L192.13 103.927L184.544 100.318ZM192.132 91.0733L197.954 97.8296L197.361 99.0758L195.016 96.3521L189.657 96.2748L190.296 94.9311L194.16 95.1612L191.534 92.3303L192.132 91.0733ZM194.563 85.9621L199.548 88.3334L199.001 89.482L195.068 87.6107L194.063 89.7238L197.996 91.5951L197.45 92.7437L192.465 90.3724L194.563 85.9621ZM197.586 86.0324C197.073 85.7884 196.677 85.458 196.396 85.0413C196.12 84.6173 195.969 84.1515 195.945 83.6438C195.917 83.1255 196.023 82.6135 196.264 82.1078C196.508 81.5949 196.838 81.1894 197.254 80.8914C197.664 80.5899 198.118 80.4164 198.618 80.3708C199.122 80.318 199.63 80.4136 200.143 80.6576C200.649 80.8982 201.043 81.2321 201.327 81.6596C201.607 82.0763 201.763 82.5402 201.795 83.0513C201.819 83.559 201.709 84.0693 201.465 84.5822C201.225 85.0879 200.898 85.4951 200.485 85.8038C200.069 86.1018 199.609 86.2772 199.105 86.33C198.598 86.3722 198.092 86.273 197.586 86.0324ZM198.158 84.8296C198.621 85.0495 199.067 85.0891 199.497 84.9482C199.923 84.7967 200.236 84.5115 200.436 84.0925C200.638 83.6662 200.662 83.2435 200.507 82.8243C200.345 82.4017 200.033 82.0804 199.571 81.8604C199.101 81.637 198.655 81.5975 198.232 81.7418C197.809 81.886 197.496 82.1713 197.293 82.5975C197.094 83.0165 197.07 83.4392 197.221 83.8657C197.376 84.2849 197.689 84.6062 198.158 84.8296ZM198.179 78.3615L198.725 77.2128L200.589 78.0995L201.8 75.5529L199.937 74.6663L200.483 73.5176L205.468 75.8889L204.921 77.0376L202.787 76.0221L201.575 78.5686L203.71 79.5841L203.164 80.7328L198.179 78.3615ZM202.74 68.7739L203.286 67.6252L205.15 68.5119L206.361 65.9653L204.498 65.0787L205.044 63.93L210.029 66.3013L209.482 67.45L207.348 66.4344L206.136 68.981L208.271 69.9965L207.724 71.1452L202.74 68.7739ZM207.304 62.5872L206.237 62.651C206.21 62.3546 206.212 62.0056 206.243 61.6042C206.278 61.1956 206.402 60.7673 206.615 60.3194C206.908 59.7054 207.282 59.2722 207.739 59.0199C208.192 58.757 208.664 58.7423 209.155 58.976L212.709 60.6669L212.163 61.8155L211.448 61.4753C211.643 61.7542 211.74 62.0797 211.74 62.4518C211.737 62.8133 211.646 63.1819 211.467 63.5575C211.233 64.0488 210.906 64.4023 210.484 64.6181C210.066 64.8267 209.604 64.8107 209.098 64.5702C208.585 64.3262 208.275 63.944 208.169 63.4236C208.062 62.9033 208.165 62.3144 208.477 61.657C208.608 61.3825 208.761 61.154 208.936 60.9717C209.108 60.7787 209.273 60.6269 209.432 60.5165L208.738 60.1865C208.507 60.0766 208.284 60.0899 208.068 60.2265C207.849 60.3525 207.674 60.5527 207.543 60.8273C207.375 61.1812 207.287 61.5247 207.279 61.8576C207.275 62.1834 207.283 62.4265 207.304 62.5872ZM209.617 63.3684C209.848 63.4784 210.064 63.4705 210.266 63.3449C210.467 63.2193 210.628 63.0301 210.748 62.7772C210.931 62.3943 210.995 62.0352 210.942 61.6999C210.882 61.3611 210.631 61.0869 210.191 60.8773L210.093 60.8309C209.772 61.077 209.51 61.4131 209.308 61.8393C209.129 62.215 209.071 62.5328 209.133 62.7928C209.195 63.0528 209.357 63.2447 209.617 63.3684ZM214.943 49.6021C215.521 49.877 215.941 50.2409 216.204 50.6938C216.464 51.136 216.586 51.6149 216.571 52.1305C216.556 52.6461 216.431 53.1495 216.198 53.6408C215.864 54.3415 215.461 54.854 214.988 55.1782C214.508 55.4989 214.013 55.7197 213.503 55.8407L212.938 54.6548C213.341 54.5717 213.729 54.4067 214.104 54.1596C214.478 53.9125 214.751 53.6083 214.923 53.2471C215.167 52.7342 215.226 52.275 215.1 51.8695C214.974 51.4641 214.68 51.1513 214.218 50.9314C213.907 50.7836 213.607 50.734 213.318 50.7826C213.033 50.824 212.774 50.94 212.541 51.1307C212.312 51.3141 212.128 51.5539 211.987 51.8501C211.829 52.1824 211.714 52.5264 211.642 52.8821C211.574 53.2305 211.568 53.6529 211.624 54.1492L207.942 51.135L209.797 47.234L210.924 47.7701L209.527 50.7067L211.034 52.0083C211.029 51.554 211.129 51.1101 211.336 50.6766C211.535 50.2576 211.82 49.9282 212.191 49.6883C212.566 49.4412 212.989 49.3059 213.461 49.2823C213.936 49.2515 214.43 49.3581 214.943 49.6021ZM214.032 48.1095C213.244 47.7349 212.617 47.2856 212.148 46.7616C211.68 46.2376 211.388 45.678 211.273 45.0826C211.161 44.4801 211.244 43.8862 211.522 43.3011C211.804 42.7087 212.212 42.2695 212.747 41.9835C213.285 41.6902 213.905 41.5599 214.607 41.5927C215.309 41.6254 216.054 41.8291 216.841 42.2037C217.622 42.5749 218.249 43.0242 218.725 43.5516C219.193 44.0756 219.483 44.6389 219.595 45.2414C219.711 45.8367 219.628 46.4306 219.346 47.023C219.068 47.6081 218.659 48.0474 218.121 48.3406C217.586 48.6266 216.968 48.7533 216.266 48.7205C215.557 48.6843 214.812 48.4807 214.032 48.1095ZM214.63 46.8525C215.172 47.1102 215.685 47.2702 216.169 47.3322C216.646 47.3909 217.064 47.3504 217.423 47.211C217.774 47.0681 218.032 46.8233 218.197 46.4766C218.362 46.1298 218.389 45.775 218.278 45.4122C218.16 45.0459 217.928 44.6962 217.581 44.3631C217.231 44.0193 216.785 43.7185 216.243 43.4607C215.694 43.1995 215.18 43.0432 214.699 42.9918C214.222 42.9332 213.808 42.9753 213.456 43.1182C213.098 43.2576 212.836 43.5007 212.671 43.8475C212.506 44.1943 212.482 44.5508 212.6 44.917C212.711 45.2799 212.94 45.6278 213.287 45.961C213.633 46.2941 214.081 46.5913 214.63 46.8525ZM217.249 41.3474C216.461 40.9728 215.833 40.5235 215.365 39.9995C214.897 39.4755 214.605 38.9158 214.489 38.3205C214.377 37.718 214.461 37.1241 214.739 36.539C215.021 35.9466 215.429 35.5074 215.964 35.2213C216.502 34.9281 217.122 34.7978 217.824 34.8306C218.526 34.8633 219.271 35.067 220.058 35.4416C220.838 35.8128 221.466 36.262 221.942 36.7895C222.41 37.3135 222.7 37.8767 222.812 38.4793C222.928 39.0746 222.845 39.6685 222.563 40.2609C222.284 40.846 221.876 41.2852 221.338 41.5785C220.803 41.8645 220.185 41.9912 219.483 41.9584C218.774 41.9222 218.029 41.7185 217.249 41.3474ZM217.847 40.0904C218.389 40.3481 218.902 40.508 219.386 40.5701C219.863 40.6287 220.281 40.5883 220.64 40.4489C220.991 40.306 221.249 40.0612 221.414 39.7144C221.579 39.3677 221.606 39.0129 221.495 38.6501C221.377 38.2838 221.145 37.9341 220.798 37.6009C220.448 37.2571 220.002 36.9564 219.46 36.6986C218.911 36.4374 218.396 36.2811 217.916 36.2297C217.439 36.1711 217.025 36.2132 216.673 36.3561C216.314 36.4955 216.053 36.7386 215.888 37.0854C215.723 37.4321 215.699 37.7887 215.817 38.1549C215.928 38.5177 216.157 38.8657 216.503 39.1989C216.85 39.532 217.298 39.8292 217.847 40.0904ZM220.466 34.5853C219.678 34.2107 219.05 33.7614 218.582 33.2374C218.114 32.7134 217.822 32.1537 217.706 31.5584C217.594 30.9558 217.677 30.362 217.956 29.7768C218.238 29.1844 218.646 28.7452 219.181 28.4592C219.719 28.166 220.339 28.0357 221.041 28.0685C221.743 28.1012 222.488 28.3049 223.275 28.6795C224.055 29.0506 224.683 29.4999 225.159 30.0274C225.627 30.5514 225.917 31.1146 226.029 31.7172C226.145 32.3125 226.061 32.9064 225.78 33.4987C225.501 34.0839 225.093 34.5231 224.555 34.8164C224.02 35.1024 223.402 35.229 222.7 35.1963C221.99 35.1601 221.246 34.9564 220.466 34.5853ZM221.064 33.3283C221.605 33.586 222.118 33.7459 222.603 33.808C223.08 33.8666 223.498 33.8262 223.856 33.6868C224.208 33.5439 224.466 33.2991 224.631 32.9523C224.796 32.6056 224.823 32.2508 224.712 31.8879C224.594 31.5217 224.362 31.172 224.015 30.8388C223.665 30.495 223.219 30.1942 222.677 29.9365C222.128 29.6753 221.613 29.519 221.133 29.4676C220.656 29.409 220.241 29.4511 219.89 29.594C219.531 29.7334 219.269 29.9765 219.104 30.3233C218.939 30.67 218.916 31.0265 219.034 31.3928C219.145 31.7556 219.374 32.1036 219.72 32.4367C220.067 32.7699 220.514 33.0671 221.064 33.3283ZM227.769 29.0097L226.295 28.3086L225.847 29.2514L225.142 28.9163L225.591 27.9736L224.626 27.5148L224.178 28.4575L223.354 28.0658L223.803 27.123L220.032 25.3291L221.001 23.2918C221.451 22.3455 221.976 21.7358 222.575 21.4628C223.178 21.1826 223.844 21.216 224.574 21.5631C225.311 21.9137 225.77 22.4379 225.952 23.1356C226.127 23.83 225.984 24.6612 225.523 25.6293L225.09 26.5395L226.055 26.9983L226.905 25.2103L227.61 25.5454L226.759 27.3334L228.233 28.0345L227.769 29.0097ZM224.633 25.3783C224.946 24.7209 225.079 24.1601 225.035 23.6958C224.993 23.2242 224.691 22.8544 224.127 22.5864C223.636 22.3527 223.199 22.3308 222.816 22.5209C222.433 22.7109 222.089 23.1273 221.783 23.7703L221.319 24.7456L224.267 26.1477L224.633 25.3783Z" fill="white"/>
<path d="M190.806 179.316L191.333 180.669L188.078 181.935L192.464 183.576L193.082 185.164L188.13 183.293L185.319 188.378L184.688 186.757L187.15 182.296L183.504 183.715L182.978 182.362L190.806 179.316ZM192.332 191.178L183.422 190.782L182.921 189.496L186.512 189.657L190.243 185.81L190.782 187.197L187.965 189.851L191.827 189.881L192.332 191.178ZM194.384 196.453L189.24 198.455L188.779 197.269L192.838 195.689L191.99 193.509L187.93 195.089L187.469 193.903L192.613 191.901L194.384 196.453ZM192.26 198.605C192.789 198.399 193.302 198.337 193.797 198.419C194.296 198.508 194.738 198.718 195.124 199.048C195.52 199.383 195.82 199.812 196.023 200.334C196.229 200.863 196.298 201.381 196.229 201.889C196.168 202.393 195.983 202.843 195.673 203.238C195.366 203.641 194.948 203.946 194.419 204.151C193.897 204.355 193.383 204.413 192.877 204.326C192.382 204.245 191.937 204.04 191.544 203.712C191.158 203.382 190.861 202.952 190.655 202.423C190.452 201.901 190.38 201.384 190.438 200.872C190.507 200.364 190.695 199.909 191.002 199.507C191.319 199.108 191.738 198.808 192.26 198.605ZM192.743 199.846C192.266 200.032 191.931 200.329 191.739 200.739C191.557 201.153 191.55 201.577 191.718 202.009C191.889 202.449 192.18 202.756 192.592 202.931C193.01 203.103 193.458 203.096 193.936 202.91C194.42 202.722 194.755 202.424 194.94 202.017C195.125 201.61 195.132 201.187 194.961 200.747C194.793 200.315 194.501 200.007 194.087 199.825C193.676 199.65 193.228 199.657 192.743 199.846ZM197.437 204.297L197.898 205.482L195.975 206.23L196.997 208.859L198.921 208.11L199.382 209.295L194.238 211.297L193.776 210.112L195.98 209.255L194.957 206.627L192.754 207.484L192.293 206.298L197.437 204.297ZM201.287 214.191L201.748 215.376L199.825 216.125L200.848 218.753L202.771 218.004L203.232 219.19L198.088 221.192L197.627 220.006L199.83 219.149L198.807 216.521L196.604 217.378L196.143 216.193L201.287 214.191ZM202.66 221.756L203.345 220.935C203.58 221.119 203.832 221.36 204.103 221.658C204.376 221.963 204.603 222.347 204.783 222.81C205.029 223.443 205.088 224.013 204.958 224.518C204.839 225.028 204.526 225.382 204.019 225.579L200.351 227.006L199.89 225.821L200.628 225.534C200.291 225.485 199.987 225.332 199.716 225.077C199.456 224.827 199.25 224.508 199.099 224.12C198.902 223.613 198.869 223.132 199.001 222.677C199.136 222.23 199.464 221.905 199.986 221.702C200.516 221.496 201.006 221.532 201.458 221.811C201.91 222.09 202.268 222.569 202.532 223.247C202.642 223.531 202.704 223.799 202.716 224.051C202.739 224.309 202.736 224.533 202.708 224.724L203.423 224.446C203.662 224.353 203.806 224.181 203.854 223.931C203.913 223.685 203.887 223.42 203.777 223.137C203.635 222.771 203.445 222.472 203.208 222.238C202.974 222.011 202.791 221.85 202.66 221.756ZM200.505 222.903C200.267 222.996 200.124 223.159 200.077 223.392C200.031 223.624 200.058 223.871 200.16 224.132C200.313 224.527 200.53 224.821 200.811 225.012C201.099 225.2 201.47 225.206 201.925 225.029L202.026 224.99C202.067 224.588 202.001 224.167 201.83 223.727C201.679 223.339 201.488 223.079 201.256 222.946C201.024 222.813 200.774 222.799 200.505 222.903ZM206.872 236.22C206.276 236.452 205.723 236.509 205.213 236.389C204.713 236.275 204.281 236.035 203.916 235.671C203.551 235.306 203.27 234.871 203.072 234.364C202.791 233.641 202.694 232.996 202.783 232.429C202.879 231.859 203.058 231.348 203.319 230.894L204.57 231.296C204.354 231.646 204.208 232.042 204.131 232.484C204.054 232.926 204.088 233.333 204.233 233.706C204.439 234.235 204.733 234.593 205.114 234.78C205.496 234.966 205.925 234.966 206.402 234.781C206.723 234.656 206.964 234.472 207.127 234.228C207.293 233.992 207.386 233.724 207.407 233.424C207.43 233.132 207.382 232.832 207.263 232.527C207.13 232.184 206.958 231.864 206.749 231.568C206.542 231.28 206.239 230.985 205.839 230.686L210.558 230.073L212.125 234.099L210.961 234.552L209.782 231.521L207.801 231.725C208.136 232.033 208.39 232.41 208.564 232.858C208.732 233.29 208.776 233.724 208.697 234.158C208.62 234.6 208.428 235.001 208.122 235.361C207.818 235.728 207.402 236.014 206.872 236.22ZM208.583 236.581C209.396 236.264 210.154 236.115 210.856 236.134C211.559 236.152 212.166 236.324 212.679 236.648C213.194 236.98 213.569 237.447 213.804 238.051C214.042 238.663 214.082 239.261 213.923 239.846C213.768 240.439 213.437 240.98 212.932 241.468C212.427 241.957 211.768 242.359 210.955 242.675C210.15 242.989 209.392 243.137 208.682 243.122C207.98 243.103 207.371 242.928 206.856 242.597C206.343 242.272 205.968 241.805 205.73 241.193C205.495 240.589 205.455 239.991 205.611 239.398C205.769 238.813 206.101 238.276 206.607 237.788C207.119 237.296 207.778 236.894 208.583 236.581ZM209.088 237.878C208.529 238.095 208.061 238.359 207.684 238.669C207.314 238.976 207.057 239.308 206.912 239.665C206.775 240.018 206.776 240.374 206.915 240.732C207.055 241.09 207.294 241.353 207.634 241.521C207.982 241.686 208.396 241.757 208.876 241.733C209.366 241.714 209.891 241.596 210.45 241.378C211.017 241.158 211.484 240.89 211.851 240.576C212.221 240.269 212.474 239.938 212.611 239.584C212.755 239.228 212.758 238.87 212.619 238.513C212.48 238.155 212.236 237.893 211.889 237.728C211.548 237.56 211.138 237.488 210.658 237.511C210.178 237.535 209.655 237.657 209.088 237.878ZM211.299 243.559C212.112 243.243 212.869 243.094 213.572 243.112C214.274 243.131 214.882 243.302 215.394 243.626C215.91 243.958 216.285 244.426 216.52 245.03C216.758 245.641 216.797 246.239 216.639 246.825C216.483 247.418 216.153 247.958 215.648 248.447C215.142 248.935 214.483 249.338 213.671 249.654C212.866 249.967 212.108 250.116 211.398 250.1C210.696 250.082 210.087 249.907 209.571 249.575C209.059 249.251 208.684 248.783 208.446 248.172C208.211 247.568 208.171 246.97 208.327 246.377C208.485 245.791 208.817 245.255 209.322 244.766C209.835 244.275 210.494 243.872 211.299 243.559ZM211.804 244.856C211.245 245.074 210.777 245.338 210.399 245.648C210.029 245.955 209.772 246.286 209.628 246.643C209.491 246.997 209.492 247.353 209.631 247.711C209.77 248.068 210.01 248.331 210.35 248.499C210.698 248.665 211.112 248.735 211.592 248.712C212.082 248.693 212.607 248.574 213.166 248.357C213.733 248.136 214.199 247.869 214.566 247.554C214.936 247.247 215.19 246.917 215.327 246.563C215.471 246.206 215.474 245.849 215.334 245.491C215.195 245.133 214.952 244.872 214.604 244.707C214.264 244.538 213.854 244.466 213.374 244.49C212.894 244.514 212.37 244.636 211.804 244.856ZM214.015 250.538C214.827 250.221 215.585 250.072 216.287 250.091C216.99 250.109 217.597 250.281 218.11 250.605C218.625 250.937 219.001 251.404 219.236 252.008C219.473 252.62 219.513 253.218 219.355 253.803C219.199 254.396 218.869 254.937 218.363 255.425C217.858 255.914 217.199 256.316 216.386 256.632C215.581 256.946 214.824 257.095 214.114 257.079C213.411 257.06 212.802 256.885 212.287 256.554C211.774 256.229 211.399 255.762 211.161 255.15C210.926 254.546 210.887 253.948 211.042 253.355C211.201 252.77 211.533 252.233 212.038 251.745C212.551 251.253 213.21 250.851 214.015 250.538ZM214.52 251.835C213.96 252.052 213.492 252.316 213.115 252.626C212.745 252.933 212.488 253.265 212.343 253.622C212.206 253.975 212.207 254.331 212.347 254.689C212.486 255.047 212.726 255.31 213.066 255.478C213.413 255.643 213.827 255.714 214.307 255.69C214.798 255.671 215.323 255.553 215.882 255.335C216.448 255.115 216.915 254.847 217.282 254.533C217.652 254.226 217.905 253.895 218.042 253.541C218.187 253.185 218.189 252.827 218.05 252.47C217.911 252.112 217.667 251.85 217.32 251.685C216.98 251.517 216.57 251.445 216.09 251.468C215.609 251.492 215.086 251.614 214.52 251.835ZM213.064 259.677L214.585 259.085L214.207 258.112L214.934 257.829L215.312 258.802L216.307 258.415L215.929 257.442L216.779 257.111L217.157 258.084L221.049 256.569L221.867 258.672C222.247 259.648 222.331 260.449 222.119 261.072C221.909 261.703 221.428 262.165 220.675 262.458C219.915 262.754 219.218 262.729 218.586 262.383C217.96 262.033 217.453 261.359 217.065 260.36L216.699 259.421L215.704 259.808L216.422 261.654L215.695 261.936L214.977 260.091L213.456 260.683L213.064 259.677ZM217.858 259.884C218.122 260.563 218.438 261.045 218.807 261.331C219.179 261.624 219.655 261.657 220.237 261.431C220.744 261.234 221.059 260.931 221.184 260.522C221.308 260.113 221.241 259.577 220.982 258.913L220.591 257.907L217.549 259.09L217.858 259.884Z" fill="#525458"/>
<path d="M130.704 126.032C130.894 125.472 130.936 124.937 130.829 124.428C130.723 123.919 130.505 123.478 130.175 123.104C129.836 122.736 129.423 122.469 128.938 122.305C128.378 122.115 127.857 122.057 127.376 122.131C126.884 122.209 126.447 122.365 126.064 122.599L126.607 120.996C127.025 120.834 127.456 120.747 127.898 120.737C128.334 120.724 128.843 120.816 129.426 121.013C130.01 121.211 130.518 121.493 130.952 121.859C131.382 122.233 131.726 122.666 131.981 123.158C132.229 123.648 132.375 124.179 132.418 124.75C132.45 125.327 132.364 125.919 132.159 126.525C131.953 127.131 131.664 127.65 131.29 128.081C130.906 128.516 130.466 128.853 129.972 129.091C129.47 129.327 128.935 129.458 128.369 129.486C127.799 129.521 127.223 129.44 126.639 129.242C126.056 129.045 125.595 128.808 125.258 128.534C124.912 128.256 124.623 127.926 124.39 127.543L124.932 125.94C125.095 126.358 125.348 126.744 125.693 127.097C126.028 127.456 126.476 127.73 127.037 127.92C127.522 128.084 128.012 128.119 128.508 128.026C128.995 127.937 129.435 127.723 129.828 127.383C130.22 127.051 130.511 126.601 130.704 126.032ZM123.57 125.01L122.365 124.602L122.989 122.761L120.444 123.951L118.944 123.443L121.926 122.046L120.488 118.138L121.976 118.642L123.235 122.033L124.136 119.374L125.341 119.782L123.57 125.01ZM116.658 122.669L117.67 119.68L112.977 121.866L114.883 116.24L116.087 116.648L115.071 119.648L119.78 117.455L117.874 123.081L116.658 122.669ZM108.092 113.94L112.354 115.383L112.7 114.36L113.951 114.784L113.246 116.864L112.28 116.536L108.346 120.297L107.506 114.92L106.54 114.592L107.245 112.512L108.438 112.917L108.092 113.94ZM109.081 118.126L110.984 116.098L108.802 115.358L109.081 118.126ZM103.88 118.341L102.675 117.933L103.298 116.092L100.754 117.282L99.2537 116.774L102.236 115.377L100.797 111.469L102.286 111.973L103.545 115.364L104.446 112.705L105.65 113.113L103.88 118.341ZM98.1874 114.867L98.3759 115.919C98.0846 115.981 97.7379 116.02 97.3355 116.036C96.9256 116.049 96.4858 115.976 96.016 115.817C95.3719 115.599 94.8979 115.278 94.5938 114.854C94.2796 114.435 94.2097 113.968 94.3843 113.452L95.6469 109.724L96.8517 110.133L96.5976 110.883C96.8517 110.656 97.1635 110.521 97.5331 110.477C97.8925 110.439 98.2692 110.486 98.6632 110.619C99.1785 110.794 99.568 111.078 99.8317 111.471C100.088 111.862 100.126 112.323 99.9465 112.853C99.7643 113.391 99.4211 113.744 98.9168 113.911C98.4126 114.078 97.8157 114.045 97.1262 113.811C96.8382 113.713 96.5934 113.588 96.3918 113.436C96.18 113.288 96.0099 113.142 95.8816 112.997L95.6352 113.724C95.5531 113.967 95.5925 114.187 95.7535 114.385C95.9043 114.588 96.1237 114.738 96.4116 114.836C96.7829 114.962 97.1343 115.009 97.4659 114.978C97.7898 114.944 98.0304 114.907 98.1874 114.867ZM98.6922 112.479C98.7744 112.237 98.7412 112.023 98.5929 111.837C98.4445 111.652 98.2377 111.514 97.9725 111.424C97.5709 111.288 97.2067 111.266 96.8799 111.358C96.5506 111.458 96.3076 111.739 96.1511 112.201L96.1164 112.303C96.3984 112.593 96.7629 112.814 97.2099 112.965C97.6039 113.099 97.9264 113.119 98.1773 113.027C98.4282 112.934 98.5998 112.752 98.6922 112.479ZM85.6266 106.331L89.8888 107.774L90.2353 106.751L91.4855 107.175L90.781 109.255L89.8149 108.928L85.8806 112.688L85.0413 107.311L84.0752 106.983L84.7797 104.904L85.9731 105.308L85.6266 106.331ZM86.6159 110.517L88.5192 108.489L86.337 107.75L86.6159 110.517ZM82.6522 108.237C82.4699 108.775 82.1883 109.208 81.8073 109.535C81.4186 109.859 80.9737 110.063 80.4723 110.147C79.9609 110.236 79.44 110.19 78.9096 110.01C78.3716 109.828 77.9302 109.548 77.5854 109.169C77.2381 108.798 77.0125 108.367 76.9086 107.876C76.7971 107.382 76.8325 106.866 77.0147 106.328C77.1944 105.797 77.4798 105.366 77.871 105.034C78.252 104.707 78.6945 104.498 79.1984 104.407C79.6997 104.323 80.2194 104.373 80.7573 104.555C81.2877 104.734 81.7304 105.011 82.0853 105.385C82.4301 105.763 82.6582 106.199 82.7696 106.693C82.871 107.192 82.8318 107.707 82.6522 108.237ZM81.3906 107.81C81.5548 107.325 81.5418 106.877 81.3515 106.466C81.1511 106.061 80.8311 105.783 80.3916 105.635C79.9446 105.483 79.522 105.509 79.1238 105.712C78.7231 105.922 78.4406 106.27 78.2763 106.755C78.1095 107.248 78.1225 107.696 78.3154 108.099C78.5083 108.502 78.8282 108.779 79.2753 108.931C79.7147 109.079 80.1373 109.054 80.5431 108.853C80.9413 108.65 81.2237 108.302 81.3906 107.81ZM70.7827 101.151C71.3434 101.341 71.7949 101.616 72.1372 101.977C72.472 102.336 72.6914 102.735 72.7955 103.176C72.8895 103.621 72.8634 104.06 72.7171 104.492L71.3646 104.034C71.4929 103.655 71.4591 103.306 71.2634 102.986C71.0676 102.667 70.7689 102.439 70.3673 102.303C69.9657 102.167 69.6027 102.166 69.2782 102.301C68.9537 102.436 68.7248 102.701 68.5913 103.095C68.4476 103.519 68.5002 103.9 68.749 104.238C68.9877 104.58 69.376 104.843 69.914 105.025L69.5714 106.037C69.0864 105.872 68.6665 105.865 68.3116 106.015C67.9541 106.173 67.7177 106.422 67.6022 106.763C67.4944 107.082 67.4981 107.37 67.6132 107.629C67.7257 107.895 67.9601 108.088 68.3162 108.209C68.6572 108.324 68.9811 108.316 69.2878 108.183C69.592 108.058 69.798 107.837 69.9058 107.518L71.1674 107.946C71.0185 108.385 70.7853 108.737 70.4678 109.001C70.1428 109.262 69.7625 109.425 69.3271 109.489C68.889 109.56 68.4276 109.514 67.9426 109.349C67.4274 109.175 67.0213 108.927 66.7243 108.607C66.4273 108.287 66.2393 107.932 66.1602 107.542C66.071 107.157 66.0931 106.768 66.2266 106.373C66.3626 105.972 66.6069 105.662 66.9596 105.444C67.3048 105.223 67.7139 105.099 68.1871 105.074C67.7611 104.761 67.4606 104.388 67.2855 103.958C67.103 103.524 67.1041 103.035 67.2888 102.489C67.4428 102.034 67.6912 101.675 68.034 101.411C68.3742 101.155 68.781 101.001 69.2543 100.95C69.7277 100.899 70.2371 100.966 70.7827 101.151ZM65.7615 104.037C65.4818 104.863 65.1092 105.539 64.6437 106.065C64.1782 106.592 63.6566 106.947 63.0789 107.132C62.4936 107.314 61.8941 107.301 61.2803 107.093C60.659 106.882 60.175 106.528 59.8283 106.031C59.474 105.531 59.2719 104.93 59.2222 104.229C59.1724 103.528 59.2874 102.765 59.5672 101.939C59.8443 101.12 60.2169 100.444 60.685 99.9102C61.1505 99.3837 61.6759 99.0295 62.2612 98.8477C62.8389 98.6632 63.4384 98.6763 64.0597 98.8867C64.6734 99.0946 65.1575 99.4485 65.5118 99.9486C65.8585 100.446 66.0567 101.045 66.1065 101.746C66.1537 102.455 66.0387 103.218 65.7615 104.037ZM64.4431 103.59C64.6355 103.022 64.7342 102.494 64.7391 102.005C64.7414 101.525 64.6523 101.115 64.4718 100.775C64.2887 100.442 64.0153 100.215 63.6516 100.091C63.2879 99.9683 62.9324 99.983 62.5851 100.136C62.2352 100.296 61.9151 100.568 61.6249 100.951C61.3245 101.339 61.0781 101.817 60.8856 102.385C60.6905 102.961 60.5956 103.491 60.6009 103.974C60.5986 104.455 60.689 104.861 60.8721 105.193C61.0526 105.533 61.3247 105.765 61.6884 105.888C62.0521 106.011 62.4089 105.993 62.7588 105.832C63.1061 105.68 63.4249 105.412 63.7151 105.029C64.0054 104.646 64.248 104.166 64.4431 103.59ZM58.0358 103.878C57.9152 104.234 57.7228 104.528 57.4586 104.759C57.1918 104.999 56.8849 105.156 56.538 105.233C56.1834 105.307 55.8167 105.28 55.4379 105.152C55.059 105.024 54.7551 104.824 54.5262 104.552C54.2897 104.277 54.142 103.966 54.0829 103.616C54.0138 103.272 54.0395 102.922 54.1601 102.565C54.2807 102.209 54.4744 101.912 54.7412 101.673C54.9979 101.439 55.3034 101.284 55.658 101.21C56.0049 101.134 56.3678 101.159 56.7467 101.288C57.1256 101.416 57.4332 101.617 57.6697 101.892C57.8986 102.163 58.0477 102.472 58.1168 102.816C58.1835 103.168 58.1565 103.522 58.0358 103.878ZM50.9795 103.465L49.752 103.049L57.9705 96.9637L59.1866 97.3756L50.9795 103.465ZM56.9902 103.524C57.0774 103.266 57.0736 103.016 56.9786 102.772C56.8761 102.527 56.6884 102.357 56.4156 102.265C56.1429 102.173 55.8986 102.196 55.6829 102.334C55.4596 102.469 55.3044 102.666 55.2171 102.923C55.1299 103.181 55.135 103.428 55.2325 103.663C55.3199 103.904 55.5 104.071 55.7728 104.163C56.0456 104.256 56.2974 104.235 56.5282 104.102C56.7489 103.974 56.9029 103.782 56.9902 103.524ZM54.7786 97.859C54.6579 98.2152 54.4693 98.5103 54.2127 98.7443C53.9459 98.9833 53.639 99.1412 53.292 99.218C52.9375 99.2922 52.5708 99.2651 52.192 99.1368C51.8131 99.0085 51.5092 98.8084 51.2803 98.5366C51.0438 98.2623 50.8961 97.9504 50.837 97.601C50.7678 97.2566 50.7936 96.9063 50.9142 96.5502C51.0348 96.1941 51.2285 95.8965 51.4953 95.6574C51.7519 95.4234 52.0575 95.2693 52.4121 95.1951C52.759 95.1183 53.1219 95.1441 53.5008 95.2724C53.8797 95.4008 54.1873 95.6021 54.4238 95.8765C54.6527 96.1483 54.8018 96.4564 54.8709 96.8007C54.93 97.1501 54.8992 97.5029 54.7786 97.859ZM53.7329 97.5049C53.8202 97.2473 53.8163 96.9968 53.7213 96.7535C53.6238 96.5177 53.4387 96.3537 53.1659 96.2613C52.8931 96.1689 52.6464 96.1867 52.4256 96.3146C52.2024 96.4502 52.0471 96.6467 51.9598 96.9044C51.8726 97.162 51.8764 97.4125 51.9714 97.6558C52.0664 97.8991 52.2502 98.067 52.523 98.1593C52.7958 98.2517 53.0438 98.2302 53.2671 98.0946C53.4904 97.9591 53.6456 97.7625 53.7329 97.5049Z" fill="white"/>
<path d="M210.844 129.914C211.086 130.455 211.419 130.876 211.843 131.177C212.267 131.478 212.726 131.654 213.222 131.704C213.722 131.743 214.205 131.658 214.672 131.449C215.213 131.208 215.635 130.896 215.938 130.516C216.244 130.124 216.459 129.713 216.582 129.281L217.272 130.826C217.076 131.229 216.819 131.585 216.501 131.894C216.191 132.199 215.754 132.477 215.192 132.729C214.63 132.98 214.065 133.119 213.498 133.144C212.928 133.163 212.382 133.078 211.86 132.891C211.345 132.701 210.878 132.41 210.458 132.019C210.042 131.618 209.703 131.126 209.442 130.541C209.181 129.957 209.041 129.38 209.023 128.81C209.008 128.229 209.102 127.683 209.303 127.173C209.511 126.659 209.814 126.199 210.211 125.794C210.605 125.381 211.083 125.049 211.645 124.798C212.208 124.546 212.706 124.406 213.141 124.379C213.583 124.348 214.019 124.393 214.451 124.516L215.142 126.06C214.738 125.864 214.29 125.753 213.797 125.728C213.308 125.693 212.793 125.796 212.253 126.038C211.785 126.247 211.401 126.554 211.101 126.96C210.804 127.356 210.627 127.812 210.569 128.329C210.508 128.838 210.599 129.367 210.844 129.914ZM216.773 125.817L217.934 125.298L218.728 127.073L219.786 124.47L221.232 123.823L219.993 126.875L223.704 128.765L222.269 129.406L219.042 127.774L220.188 130.337L219.027 130.856L216.773 125.817ZM223.435 122.838L224.724 125.719L226.682 120.926L229.106 126.349L227.945 126.868L226.652 123.976L224.688 128.785L222.263 123.362L223.435 122.838ZM235.652 123.422L231.544 125.259L231.984 126.245L230.779 126.784L229.883 124.779L230.814 124.363L231.145 118.93L235.415 122.305L236.346 121.889L237.243 123.894L236.092 124.408L235.652 123.422ZM232.081 121.023L232.063 123.804L234.166 122.864L232.081 121.023ZM235.751 117.331L236.913 116.812L237.706 118.586L238.764 115.984L240.21 115.337L238.972 118.388L242.682 120.278L241.247 120.92L238.02 119.287L239.166 121.851L238.005 122.37L235.751 117.331ZM242.288 116.012L241.435 115.368C241.606 115.125 241.834 114.86 242.119 114.575C242.411 114.287 242.783 114.042 243.236 113.839C243.857 113.562 244.422 113.475 244.934 113.58C245.449 113.674 245.817 113.969 246.04 114.465L247.646 118.059L246.485 118.578L246.162 117.855C246.129 118.194 245.992 118.505 245.751 118.788C245.513 119.06 245.205 119.282 244.825 119.452C244.329 119.674 243.85 119.73 243.389 119.621C242.935 119.508 242.594 119.196 242.366 118.685C242.134 118.166 242.146 117.674 242.403 117.209C242.659 116.744 243.12 116.363 243.784 116.065C244.062 115.941 244.326 115.867 244.578 115.842C244.834 115.806 245.058 115.798 245.251 115.817L244.937 115.116C244.833 114.882 244.654 114.748 244.401 114.712C244.153 114.665 243.89 114.704 243.612 114.828C243.254 114.988 242.964 115.192 242.742 115.44C242.528 115.685 242.376 115.876 242.288 116.012ZM243.54 118.107C243.645 118.341 243.814 118.475 244.049 118.51C244.284 118.545 244.529 118.506 244.785 118.392C245.172 118.219 245.454 117.987 245.631 117.698C245.805 117.401 245.793 117.03 245.594 116.584L245.549 116.485C245.146 116.464 244.728 116.55 244.298 116.743C243.918 116.913 243.667 117.117 243.546 117.355C243.425 117.593 243.423 117.844 243.54 118.107ZM257.304 113.74L253.196 115.577L253.637 116.563L252.432 117.102L251.536 115.097L252.467 114.681L252.798 109.248L257.068 112.623L257.999 112.207L258.895 114.212L257.745 114.726L257.304 113.74ZM253.734 111.34L253.715 114.122L255.819 113.182L253.734 111.34ZM258.191 110.32C257.959 109.801 257.872 109.293 257.929 108.794C257.994 108.292 258.182 107.84 258.493 107.438C258.808 107.025 259.221 106.705 259.732 106.476C260.251 106.244 260.765 106.15 261.275 106.194C261.782 106.23 262.241 106.393 262.651 106.683C263.068 106.969 263.393 107.372 263.624 107.89C263.853 108.402 263.937 108.912 263.875 109.421C263.818 109.92 263.635 110.374 263.328 110.784C263.017 111.186 262.602 111.502 262.083 111.734C261.572 111.963 261.059 112.061 260.545 112.028C260.035 111.984 259.571 111.819 259.154 111.533C258.74 111.235 258.42 110.831 258.191 110.32ZM259.407 109.776C259.616 110.244 259.93 110.563 260.348 110.735C260.771 110.897 261.194 110.883 261.618 110.694C262.049 110.501 262.341 110.195 262.496 109.775C262.647 109.349 262.617 108.901 262.408 108.434C262.196 107.959 261.882 107.64 261.467 107.475C261.051 107.31 260.628 107.324 260.197 107.517C259.774 107.706 259.481 108.012 259.32 108.435C259.166 108.854 259.195 109.302 259.407 109.776ZM271.714 107.454C271.174 107.696 270.656 107.8 270.159 107.768C269.67 107.733 269.238 107.589 268.862 107.336C268.49 107.073 268.211 106.733 268.025 106.317L269.328 105.734C269.492 106.099 269.754 106.333 270.115 106.434C270.476 106.536 270.85 106.5 271.237 106.327C271.624 106.154 271.89 105.907 272.037 105.588C272.183 105.268 272.171 104.919 272.001 104.539C271.819 104.13 271.521 103.886 271.109 103.807C270.701 103.718 270.238 103.789 269.719 104.021L269.283 103.046C269.751 102.837 270.064 102.557 270.222 102.206C270.377 101.847 270.381 101.504 270.234 101.175C270.097 100.868 269.899 100.659 269.638 100.548C269.375 100.429 269.072 100.446 268.728 100.6C268.4 100.747 268.168 100.973 268.033 101.279C267.895 101.577 267.894 101.88 268.031 102.187L266.815 102.73C266.626 102.307 266.558 101.89 266.612 101.481C266.672 101.068 266.841 100.69 267.117 100.348C267.39 99.9977 267.76 99.7182 268.228 99.5092C268.724 99.2871 269.19 99.1927 269.626 99.2258C270.061 99.2589 270.44 99.3917 270.763 99.6241C271.09 99.8459 271.339 100.147 271.509 100.526C271.682 100.914 271.713 101.307 271.603 101.707C271.5 102.104 271.283 102.472 270.953 102.812C271.479 102.753 271.952 102.821 272.373 103.019C272.802 103.213 273.134 103.572 273.369 104.098C273.565 104.536 273.627 104.969 273.554 105.395C273.479 105.815 273.285 106.204 272.972 106.563C272.659 106.922 272.24 107.219 271.714 107.454ZM273.438 101.925C273.082 101.129 272.895 100.379 272.879 99.6769C272.863 98.9743 273.004 98.3591 273.303 97.8313C273.609 97.3002 274.057 96.9023 274.649 96.6378C275.248 96.37 275.843 96.3009 276.436 96.4303C277.036 96.5565 277.592 96.8598 278.105 97.3403C278.617 97.8208 279.052 98.4591 279.408 99.2551C279.761 100.044 279.947 100.793 279.966 101.503C279.982 102.206 279.837 102.823 279.532 103.354C279.233 103.881 278.784 104.279 278.186 104.547C277.594 104.812 276.998 104.881 276.399 104.755C275.806 104.625 275.254 104.32 274.741 103.84C274.225 103.352 273.79 102.714 273.438 101.925ZM274.708 101.357C274.953 101.904 275.24 102.359 275.568 102.721C275.893 103.075 276.237 103.315 276.6 103.442C276.96 103.561 277.316 103.543 277.666 103.386C278.017 103.229 278.268 102.977 278.419 102.629C278.567 102.273 278.617 101.857 278.569 101.378C278.526 100.889 278.382 100.371 278.137 99.8234C277.889 99.2683 277.599 98.8153 277.266 98.4644C276.942 98.1102 276.599 97.8733 276.239 97.7539C275.876 97.6272 275.519 97.6423 275.168 97.799C274.818 97.9558 274.568 98.2118 274.42 98.5671C274.269 98.9151 274.218 99.3283 274.265 99.8066C274.312 100.285 274.46 100.802 274.708 101.357ZM279.214 96.7918C279.06 96.4486 279.002 96.1023 279.038 95.7529C279.072 95.3963 279.189 95.0719 279.392 94.7798C279.602 94.4845 279.889 94.2552 280.254 94.0919C280.619 93.9286 280.978 93.8689 281.331 93.9128C281.691 93.9534 282.011 94.0818 282.292 94.2981C282.577 94.5037 282.796 94.7782 282.949 95.1214C283.103 95.4647 283.163 95.8146 283.129 96.1713C283.1 96.5174 282.981 96.8381 282.771 97.1334C282.569 97.4255 282.285 97.6532 281.92 97.8165C281.554 97.9798 281.192 98.0411 280.832 98.0005C280.479 97.9566 280.161 97.8318 279.876 97.6262C279.588 97.4132 279.367 97.1351 279.214 96.7918ZM284.672 92.3005L285.855 91.7715L283.96 101.82L282.788 102.345L284.672 92.3005ZM280.221 96.3412C280.332 96.5895 280.506 96.7706 280.741 96.8846C280.983 96.9954 281.235 96.9919 281.498 96.8744C281.761 96.7568 281.925 96.5741 281.989 96.3262C282.061 96.075 282.041 95.8253 281.93 95.577C281.819 95.3287 281.648 95.1512 281.416 95.0445C281.189 94.9272 280.943 94.9274 280.68 95.0449C280.417 95.1625 280.246 95.3485 280.167 95.6029C280.092 95.8468 280.11 96.0929 280.221 96.3412ZM285.693 98.9946C285.54 98.6514 285.478 98.3067 285.507 97.9606C285.54 97.604 285.658 97.2796 285.861 96.9875C286.07 96.6922 286.358 96.4629 286.723 96.2996C287.088 96.1363 287.447 96.0766 287.8 96.1205C288.159 96.1611 288.48 96.2895 288.761 96.5058C289.045 96.7114 289.264 96.9859 289.418 97.3291C289.571 97.6724 289.631 98.0223 289.598 98.379C289.569 98.7251 289.449 99.0458 289.24 99.3412C289.037 99.6332 288.754 99.8609 288.388 100.024C288.023 100.187 287.661 100.249 287.301 100.208C286.948 100.164 286.629 100.04 286.345 99.8339C286.064 99.6176 285.847 99.3379 285.693 98.9946ZM286.701 98.544C286.812 98.7923 286.985 98.9734 287.22 99.0874C287.452 99.1941 287.699 99.1887 287.962 99.0711C288.225 98.9536 288.394 98.7729 288.469 98.529C288.541 98.2778 288.521 98.0281 288.41 97.7798C288.299 97.5315 288.126 97.3504 287.891 97.2364C287.656 97.1224 287.407 97.1241 287.144 97.2417C286.881 97.3593 286.714 97.5436 286.642 97.7948C286.57 98.0459 286.59 98.2957 286.701 98.544Z" fill="#525458"/>
<path d="M158.704 179.98C158.16 179.747 157.63 179.663 157.114 179.729C156.598 179.794 156.141 179.977 155.743 180.276C155.349 180.585 155.051 180.975 154.849 181.446C154.615 181.99 154.516 182.504 154.551 182.99C154.591 183.486 154.712 183.934 154.914 184.334L153.359 183.666C153.23 183.237 153.178 182.801 153.203 182.358C153.224 181.923 153.356 181.423 153.6 180.857C153.843 180.291 154.164 179.807 154.563 179.403C154.97 179.004 155.429 178.696 155.94 178.48C156.447 178.271 156.988 178.168 157.561 178.171C158.139 178.184 158.722 178.317 159.31 178.569C159.898 178.822 160.392 179.151 160.792 179.558C161.196 179.976 161.497 180.44 161.695 180.952C161.89 181.471 161.979 182.014 161.962 182.581C161.952 183.152 161.825 183.72 161.582 184.286C161.339 184.852 161.067 185.292 160.767 185.607C160.463 185.929 160.111 186.192 159.71 186.394L158.156 185.726C158.585 185.598 158.99 185.375 159.369 185.059C159.753 184.754 160.062 184.329 160.295 183.785C160.497 183.315 160.571 182.829 160.517 182.326C160.467 181.835 160.288 181.379 159.981 180.96C159.681 180.544 159.255 180.217 158.704 179.98ZM157.121 187.011L156.619 188.18L154.832 187.413L155.818 190.043L155.193 191.499L154.036 188.416L150.026 189.541L150.647 188.096L154.127 187.11L151.547 186.001L152.049 184.833L157.121 187.011ZM154.24 193.716L151.341 192.471L153.149 197.322L147.691 194.978L148.193 193.809L151.104 195.059L149.289 190.192L154.747 192.537L154.24 193.716ZM144.861 201.566L146.637 197.431L145.645 197.005L146.166 195.792L148.184 196.659L147.781 197.596L151.219 201.815L145.792 202.227L145.389 203.164L143.372 202.297L143.869 201.139L144.861 201.566ZM149.113 200.91L147.241 198.853L146.332 200.97L149.113 200.91ZM148.916 206.113L148.414 207.281L146.628 206.514L147.613 209.145L146.988 210.6L145.831 207.517L141.822 208.642L142.442 207.198L145.922 206.211L143.342 205.103L143.844 203.934L148.916 206.113ZM145.003 211.512L146.067 211.408C146.105 211.703 146.117 212.052 146.101 212.454C146.081 212.864 145.974 213.296 145.778 213.752C145.51 214.377 145.152 214.824 144.705 215.094C144.263 215.374 143.792 215.406 143.292 215.192L139.676 213.638L140.178 212.47L140.905 212.782C140.7 212.511 140.59 212.189 140.575 211.818C140.565 211.456 140.642 211.084 140.806 210.702C141.021 210.202 141.335 209.837 141.748 209.605C142.158 209.38 142.62 209.379 143.134 209.6C143.656 209.824 143.98 210.194 144.107 210.71C144.234 211.226 144.154 211.818 143.866 212.487C143.746 212.766 143.602 213 143.434 213.189C143.27 213.389 143.111 213.547 142.956 213.663L143.662 213.966C143.897 214.067 144.12 214.045 144.33 213.901C144.544 213.766 144.711 213.559 144.831 213.28C144.986 212.92 145.061 212.573 145.056 212.24C145.048 211.915 145.03 211.672 145.003 211.512ZM142.662 210.82C142.427 210.719 142.211 210.735 142.015 210.869C141.818 211.002 141.664 211.197 141.554 211.454C141.387 211.844 141.336 212.205 141.402 212.538C141.475 212.875 141.736 213.139 142.184 213.332L142.283 213.374C142.595 213.116 142.843 212.77 143.03 212.336C143.194 211.954 143.24 211.634 143.167 211.377C143.095 211.12 142.927 210.934 142.662 210.82ZM135.5 223.359L137.276 219.224L136.284 218.798L136.805 217.585L138.823 218.452L138.42 219.389L141.858 223.608L136.431 224.02L136.028 224.957L134.011 224.09L134.508 222.933L135.5 223.359ZM139.752 222.704L137.88 220.646L136.971 222.763L139.752 222.704ZM137.166 226.475C137.688 226.699 138.096 227.014 138.392 227.42C138.685 227.833 138.853 228.292 138.897 228.799C138.945 229.316 138.858 229.831 138.637 230.346C138.413 230.868 138.099 231.286 137.694 231.599C137.297 231.916 136.849 232.107 136.351 232.172C135.85 232.244 135.338 232.168 134.817 231.944C134.302 231.723 133.895 231.404 133.595 230.988C133.299 230.582 133.125 230.125 133.074 229.615C133.03 229.109 133.121 228.595 133.345 228.073C133.566 227.558 133.877 227.139 134.277 226.814C134.682 226.501 135.135 226.308 135.636 226.236C136.141 226.174 136.651 226.254 137.166 226.475ZM136.64 227.699C136.169 227.497 135.722 227.474 135.298 227.631C134.877 227.799 134.575 228.096 134.392 228.523C134.206 228.956 134.198 229.38 134.369 229.793C134.547 230.209 134.872 230.518 135.342 230.72C135.82 230.925 136.268 230.947 136.685 230.787C137.102 230.627 137.404 230.33 137.59 229.896C137.773 229.47 137.781 229.046 137.613 228.626C137.442 228.213 137.118 227.904 136.64 227.699ZM129.163 237.747C129.397 237.203 129.707 236.775 130.094 236.462C130.478 236.157 130.893 235.969 131.341 235.9C131.793 235.842 132.228 235.903 132.647 236.083L132.083 237.395C131.716 237.237 131.365 237.243 131.031 237.413C130.697 237.583 130.446 237.863 130.278 238.252C130.111 238.642 130.082 239.004 130.191 239.338C130.3 239.672 130.545 239.921 130.928 240.085C131.339 240.262 131.723 240.24 132.08 240.018C132.44 239.807 132.732 239.441 132.957 238.919L133.938 239.341C133.736 239.811 133.696 240.229 133.817 240.595C133.946 240.964 134.176 241.219 134.507 241.361C134.815 241.494 135.103 241.513 135.37 241.419C135.644 241.327 135.856 241.109 136.004 240.764C136.146 240.433 136.163 240.109 136.055 239.793C135.955 239.48 135.75 239.257 135.441 239.125L135.967 237.901C136.393 238.084 136.726 238.344 136.964 238.681C137.199 239.026 137.331 239.418 137.36 239.857C137.396 240.299 137.313 240.756 137.111 241.226C136.897 241.726 136.618 242.111 136.275 242.382C135.933 242.653 135.564 242.812 135.169 242.86C134.778 242.919 134.391 242.866 134.009 242.702C133.62 242.534 133.33 242.266 133.14 241.897C132.947 241.536 132.857 241.118 132.868 240.645C132.523 241.044 132.128 241.315 131.684 241.455C131.238 241.603 130.75 241.563 130.221 241.336C129.78 241.146 129.441 240.87 129.205 240.508C128.976 240.148 128.855 239.731 128.842 239.255C128.829 238.779 128.936 238.276 129.163 237.747ZM131.643 242.981C132.444 243.325 133.089 243.75 133.577 244.255C134.065 244.761 134.378 245.309 134.516 245.9C134.651 246.497 134.591 247.094 134.335 247.689C134.076 248.292 133.685 248.747 133.162 249.053C132.635 249.367 132.021 249.52 131.318 249.515C130.615 249.509 129.863 249.334 129.062 248.99C128.268 248.649 127.623 248.224 127.128 247.715C126.64 247.209 126.328 246.658 126.193 246.06C126.055 245.469 126.116 244.873 126.375 244.27C126.63 243.675 127.021 243.22 127.548 242.906C128.071 242.6 128.684 242.45 129.387 242.456C130.097 242.465 130.849 242.64 131.643 242.981ZM131.094 244.26C130.542 244.023 130.024 243.883 129.537 243.839C129.058 243.799 128.642 243.855 128.289 244.008C127.943 244.165 127.695 244.419 127.543 244.772C127.392 245.125 127.378 245.48 127.503 245.839C127.635 246.2 127.881 246.541 128.24 246.86C128.603 247.19 129.06 247.474 129.611 247.711C130.17 247.951 130.69 248.087 131.172 248.12C131.651 248.16 132.064 248.102 132.41 247.946C132.763 247.793 133.015 247.54 133.166 247.187C133.318 246.834 133.328 246.477 133.196 246.116C133.071 245.758 132.829 245.419 132.47 245.099C132.111 244.779 131.652 244.5 131.094 244.26ZM130.874 250.67C131.22 250.818 131.497 251.033 131.707 251.315C131.924 251.6 132.057 251.918 132.106 252.27C132.152 252.629 132.096 252.993 131.939 253.36C131.781 253.728 131.557 254.015 131.268 254.221C130.976 254.435 130.653 254.558 130.3 254.589C129.952 254.631 129.605 254.578 129.259 254.429C128.914 254.281 128.632 254.064 128.415 253.779C128.202 253.505 128.073 253.188 128.027 252.829C127.978 252.477 128.032 252.117 128.19 251.75C128.348 251.382 128.573 251.092 128.865 250.877C129.154 250.671 129.473 250.547 129.822 250.505C130.178 250.466 130.529 250.521 130.874 250.67ZM129.904 257.671L129.393 258.862L123.976 250.188L124.483 249.008L129.904 257.671ZM130.438 251.684C130.188 251.577 129.938 251.561 129.688 251.636C129.435 251.719 129.252 251.893 129.138 252.157C129.024 252.422 129.028 252.667 129.148 252.893C129.266 253.126 129.45 253.297 129.7 253.404C129.949 253.511 130.196 253.526 130.438 253.447C130.685 253.379 130.866 253.213 130.979 252.948C131.093 252.683 131.093 252.431 130.978 252.19C130.868 251.96 130.688 251.791 130.438 251.684ZM124.616 253.441C124.962 253.589 125.241 253.801 125.454 254.075C125.671 254.36 125.804 254.678 125.854 255.03C125.899 255.389 125.843 255.753 125.686 256.12C125.528 256.488 125.304 256.775 125.015 256.982C124.723 257.196 124.4 257.318 124.047 257.35C123.699 257.391 123.352 257.338 123.006 257.19C122.661 257.041 122.379 256.825 122.162 256.54C121.949 256.265 121.82 255.949 121.774 255.589C121.725 255.237 121.779 254.878 121.937 254.51C122.095 254.143 122.32 253.852 122.612 253.638C122.901 253.431 123.22 253.307 123.569 253.265C123.922 253.234 124.271 253.292 124.616 253.441ZM124.181 254.455C123.931 254.348 123.681 254.332 123.431 254.407C123.188 254.486 123.01 254.657 122.896 254.922C122.782 255.187 122.781 255.434 122.891 255.664C123.008 255.898 123.192 256.068 123.442 256.175C123.692 256.283 123.942 256.298 124.192 256.223C124.442 256.148 124.624 255.978 124.737 255.713C124.851 255.448 124.849 255.199 124.732 254.966C124.614 254.733 124.431 254.562 124.181 254.455Z" fill="white"/>
<path d="M156.735 94.2834C157.239 94.0597 157.71 93.9955 158.146 94.0908C158.579 94.1789 158.968 94.3957 159.314 94.7412C159.649 95.0826 159.937 95.5239 160.177 96.0651L161.262 98.5113L153.583 101.917L152.556 99.6021C152.232 98.8708 152.13 98.2071 152.251 97.611C152.364 97.0181 152.746 96.5774 153.397 96.2887C153.785 96.1168 154.161 96.0769 154.526 96.169C154.883 96.2643 155.214 96.4677 155.518 96.779C155.432 96.2485 155.481 95.7583 155.667 95.3085C155.845 94.8619 156.201 94.5202 156.735 94.2834ZM153.659 99.218L154.073 100.15L156.091 99.2553L155.678 98.3229C155.519 97.9645 155.301 97.7109 155.025 97.562C154.742 97.4164 154.443 97.4133 154.128 97.5528C153.807 97.6955 153.608 97.9191 153.533 98.2237C153.458 98.5282 153.5 98.8597 153.659 99.218ZM159.623 97.6888L159.147 96.6138C158.952 96.175 158.685 95.86 158.347 95.6688C158.001 95.4809 157.616 95.481 157.192 95.6691C156.775 95.854 156.527 96.1345 156.449 96.5105C156.371 96.8865 156.429 97.2939 156.624 97.7327L157.1 98.8077L159.623 97.6888ZM153.654 94.9724L152.238 91.7803L153.28 91.3181L153.728 92.3273L157.732 90.5516L158.247 91.7144L154.243 93.4901L154.696 94.5103L153.654 94.9724ZM154.644 90.3966C154.124 90.6269 153.615 90.7126 153.117 90.6537C152.615 90.5875 152.163 90.3983 151.762 90.0861C151.351 89.7698 151.031 89.3556 150.804 88.8437C150.574 88.3245 150.481 87.8098 150.527 87.2998C150.564 86.7929 150.729 86.335 151.02 85.9258C151.308 85.5093 151.711 85.186 152.231 84.9557C152.742 84.7287 153.253 84.6466 153.762 84.7096C154.261 84.7685 154.714 84.9524 155.123 85.2614C155.524 85.5736 155.839 85.9894 156.07 86.5086C156.297 87.0205 156.393 87.5335 156.358 88.0477C156.313 88.5577 156.147 89.021 155.859 89.4375C155.561 89.8499 155.155 90.1696 154.644 90.3966ZM154.104 89.179C154.572 88.9714 154.892 88.6586 155.066 88.2404C155.228 87.8181 155.216 87.3949 155.028 86.9707C154.836 86.5393 154.531 86.2458 154.112 86.0903C153.686 85.9381 153.239 85.9657 152.771 86.1733C152.295 86.3841 151.974 86.697 151.808 87.1119C151.642 87.5269 151.655 87.9501 151.846 88.3816C152.035 88.8057 152.34 89.0992 152.762 89.262C153.181 89.4175 153.628 89.3898 154.104 89.179ZM156.158 80.4905L156.688 81.6862L149.228 84.9944L148.698 83.7987L149.543 83.4241C149.155 83.3775 148.812 83.2452 148.514 83.0273C148.208 82.8126 147.971 82.5151 147.803 82.1348C147.608 81.696 147.534 81.2431 147.581 80.7761C147.62 80.3123 147.787 79.8795 148.081 79.4777C148.376 79.0758 148.805 78.75 149.368 78.5003C149.931 78.2506 150.46 78.1515 150.955 78.2031C151.451 78.2546 151.887 78.4199 152.265 78.6988C152.635 78.981 152.917 79.3414 153.112 79.7802C153.281 80.1605 153.346 80.5342 153.307 80.9013C153.262 81.2717 153.126 81.6164 152.9 81.9354L156.158 80.4905ZM149.913 79.7289C149.408 79.9527 149.087 80.2745 148.949 80.6943C148.804 81.1174 148.823 81.5337 149.004 81.9433C149.105 82.17 149.266 82.3655 149.488 82.5297C149.702 82.6972 149.958 82.8022 150.257 82.8447C150.556 82.8872 150.877 82.8322 151.221 82.6797C151.565 82.5273 151.821 82.3261 151.99 82.076C152.16 81.826 152.258 81.5637 152.285 81.2892C152.304 81.0179 152.264 80.7689 152.164 80.5422C151.982 80.1326 151.689 79.838 151.286 79.6581C150.875 79.4815 150.417 79.5051 149.913 79.7289ZM149.042 77.7665C148.523 77.9968 148.014 78.0825 147.515 78.0236C147.013 77.9574 146.562 77.7682 146.161 77.456C145.749 77.1397 145.43 76.7256 145.203 76.2137C144.973 75.6944 144.88 75.1798 144.925 74.6697C144.963 74.1629 145.127 73.7049 145.419 73.2957C145.706 72.8793 146.11 72.5559 146.629 72.3256C147.141 72.0986 147.652 72.0165 148.161 72.0795C148.66 72.1384 149.113 72.3223 149.522 72.6313C149.923 72.9435 150.238 73.3593 150.468 73.8785C150.695 74.3904 150.792 74.9035 150.757 75.4176C150.712 75.9277 150.546 76.3909 150.258 76.8074C149.959 77.2198 149.554 77.5395 149.042 77.7665ZM148.502 76.5489C148.97 76.3414 149.291 76.0285 149.464 75.6103C149.627 75.188 149.614 74.7648 149.426 74.3407C149.235 73.9092 148.93 73.6157 148.511 73.4602C148.084 73.308 147.637 73.3357 147.169 73.5432C146.694 73.7541 146.373 74.0669 146.207 74.4819C146.041 74.8968 146.054 75.32 146.245 75.7515C146.433 76.1756 146.738 76.4691 147.161 76.6319C147.58 76.7874 148.027 76.7597 148.502 76.5489ZM140.753 72.8384L140.354 71.9389C140.515 71.8675 140.655 71.7308 140.776 71.5286C140.885 71.3224 140.871 71.062 140.731 70.7476C140.588 70.4258 140.405 70.24 140.182 70.1903C139.951 70.1438 139.756 70.1563 139.595 70.2276L139.191 69.3171C139.462 69.1971 139.748 69.1531 140.051 69.185C140.344 69.2129 140.621 69.326 140.884 69.5244C141.144 69.7155 141.36 70.0048 141.532 70.3924C141.701 70.7727 141.77 71.1269 141.741 71.4551C141.711 71.7832 141.608 72.065 141.433 72.3004C141.25 72.5391 141.023 72.7184 140.753 72.8384ZM143.073 71.1137L145.958 69.8343L141.171 67.8615L146.601 65.4534L147.116 66.6162L144.22 67.9005L149.023 69.8794L143.593 72.2875L143.073 71.1137ZM137.428 58.3859L142.474 56.148L142.99 57.3108L139.008 59.0768L139.956 61.2159L143.938 59.4499L144.454 60.6127L139.408 62.8505L137.428 58.3859ZM139.45 56.1379C138.931 56.3682 138.422 56.4539 137.923 56.395C137.421 56.3288 136.97 56.1396 136.569 55.8274C136.157 55.5111 135.838 55.097 135.611 54.5851C135.381 54.0658 135.288 53.5512 135.333 53.0411C135.371 52.5343 135.535 52.0763 135.827 51.6671C136.114 51.2506 136.518 50.9273 137.037 50.697C137.549 50.47 138.06 50.3879 138.569 50.4509C139.068 50.5098 139.521 50.6937 139.93 51.0027C140.331 51.3149 140.646 51.7307 140.876 52.2499C141.103 52.7618 141.2 53.2749 141.165 53.789C141.12 54.2991 140.954 54.7623 140.666 55.1788C140.367 55.5912 139.962 55.9109 139.45 56.1379ZM138.91 54.9203C139.378 54.7127 139.699 54.3999 139.872 53.9817C140.035 53.5594 140.022 53.1362 139.834 52.7121C139.643 52.2806 139.338 51.9871 138.919 51.8316C138.492 51.6794 138.045 51.7071 137.577 51.9146C137.102 52.1254 136.781 52.4383 136.615 52.8533C136.449 53.2682 136.462 53.6914 136.653 54.1229C136.841 54.547 137.146 54.8405 137.569 55.0033C137.988 55.1588 138.435 55.1311 138.91 54.9203ZM134.327 51.3939L132.911 48.2017L133.953 47.7395L134.401 48.7487L138.405 46.9731L138.921 48.1358L134.917 49.9115L135.369 50.9317L134.327 51.3939ZM135.317 46.818C134.798 47.0483 134.289 47.134 133.79 47.0751C133.288 47.0089 132.837 46.8197 132.436 46.5075C132.024 46.1912 131.705 45.7771 131.478 45.2651C131.248 44.7459 131.155 44.2313 131.2 43.7212C131.238 43.2144 131.402 42.7564 131.693 42.3472C131.981 41.9307 132.385 41.6074 132.904 41.3771C133.416 41.1501 133.927 41.068 134.436 41.131C134.934 41.1899 135.388 41.3738 135.796 41.6828C136.197 41.995 136.513 42.4108 136.743 42.93C136.97 43.4419 137.066 43.9549 137.032 44.4691C136.987 44.9792 136.82 45.4424 136.533 45.8589C136.234 46.2713 135.829 46.591 135.317 46.818ZM134.777 45.6004C135.245 45.3928 135.566 45.08 135.739 44.6618C135.902 44.2395 135.889 43.8163 135.701 43.3922C135.51 42.9607 135.205 42.6672 134.786 42.5117C134.359 42.3595 133.912 42.3872 133.444 42.5947C132.969 42.8055 132.648 43.1184 132.482 43.5334C132.316 43.9483 132.329 44.3715 132.52 44.803C132.708 45.2271 133.013 45.5206 133.435 45.6834C133.854 45.8389 134.302 45.8112 134.777 45.6004ZM127.766 36.6001L132.812 34.3623L133.328 35.525L129.379 37.2764L130.396 39.5691L132.59 38.5961C133.189 38.3301 133.698 38.2838 134.116 38.4572C134.535 38.6305 134.901 39.0719 135.216 39.7813L134.14 40.258C134.043 40.0386 133.906 39.8765 133.728 39.7715C133.539 39.6625 133.277 39.6826 132.941 39.8318L129.814 41.2183L127.766 36.6001ZM129.735 34.2308C129.215 34.4611 128.707 34.5468 128.208 34.4879C127.706 34.4217 127.254 34.2325 126.853 33.9203C126.442 33.6039 126.123 33.1898 125.896 32.6779C125.665 32.1587 125.573 31.644 125.618 31.134C125.656 30.6271 125.82 30.1691 126.111 29.76C126.399 29.3435 126.803 29.0202 127.322 28.7899C127.834 28.5629 128.344 28.4808 128.853 28.5438C129.352 28.6026 129.806 28.7866 130.214 29.0956C130.615 29.4078 130.931 29.8235 131.161 30.3428C131.388 30.8547 131.484 31.3677 131.45 31.8819C131.405 32.3919 131.238 32.8552 130.95 33.2717C130.652 33.6841 130.247 34.0038 129.735 34.2308ZM129.195 33.0132C129.663 32.8056 129.983 32.4927 130.157 32.0746C130.32 31.6523 130.307 31.2291 130.119 30.8049C129.927 30.3735 129.622 30.08 129.203 29.9245C128.777 29.7723 128.33 29.7999 127.862 30.0075C127.386 30.2183 127.066 30.5312 126.9 30.9461C126.734 31.3611 126.746 31.7843 126.938 32.2158C127.126 32.6399 127.431 32.9334 127.853 33.0962C128.272 33.2517 128.719 33.224 129.195 33.0132ZM124.32 28.8286L123.804 27.6658L125.581 26.8777L122.982 25.8119L122.34 24.3639L125.387 25.6116L127.288 21.9067L127.926 23.3437L126.283 26.5663L128.85 25.4279L129.366 26.5907L124.32 28.8286Z" fill="#525458"/>
<path d="M215.834 162.633C215.609 163.137 215.304 163.5 214.916 163.722C214.536 163.947 214.102 164.047 213.613 164.023C213.136 163.994 212.627 163.86 212.086 163.619L209.641 162.532L213.054 154.856L215.367 155.885C216.098 156.21 216.619 156.634 216.929 157.158C217.242 157.673 217.254 158.257 216.965 158.907C216.793 159.295 216.541 159.576 216.208 159.753C215.879 159.922 215.497 159.993 215.063 159.966C215.483 160.301 215.775 160.698 215.939 161.156C216.106 161.607 216.071 162.099 215.834 162.633ZM214.806 156.91L213.874 156.495L212.977 158.513L213.909 158.927C214.267 159.087 214.599 159.129 214.903 159.054C215.211 158.972 215.435 158.774 215.575 158.46C215.718 158.138 215.715 157.839 215.567 157.563C215.418 157.287 215.165 157.069 214.806 156.91ZM211.407 162.044L212.482 162.521C212.92 162.716 213.329 162.771 213.709 162.686C214.091 162.594 214.377 162.335 214.565 161.911C214.751 161.495 214.746 161.121 214.552 160.789C214.358 160.458 214.042 160.195 213.603 160L212.529 159.522L211.407 162.044ZM217.658 160.056L220.848 161.474L220.385 162.516L219.376 162.068L217.597 166.07L216.434 165.553L218.214 161.551L217.194 161.097L217.658 160.056ZM219.991 164.114C220.222 163.595 220.542 163.19 220.952 162.899C221.369 162.612 221.83 162.45 222.337 162.412C222.855 162.371 223.369 162.464 223.881 162.692C224.4 162.922 224.814 163.242 225.122 163.651C225.434 164.052 225.619 164.502 225.678 165.001C225.743 165.503 225.661 166.013 225.43 166.532C225.202 167.044 224.879 167.447 224.459 167.742C224.049 168.033 223.59 168.2 223.079 168.245C222.573 168.282 222.06 168.186 221.541 167.955C221.029 167.727 220.613 167.411 220.294 167.007C219.986 166.598 219.799 166.143 219.733 165.641C219.678 165.135 219.764 164.626 219.991 164.114ZM221.209 164.655C221.001 165.123 220.972 165.57 221.124 165.997C221.287 166.419 221.58 166.725 222.004 166.913C222.435 167.105 222.858 167.118 223.273 166.952C223.692 166.779 224.005 166.459 224.213 165.991C224.424 165.516 224.452 165.069 224.297 164.65C224.142 164.231 223.849 163.925 223.418 163.733C222.994 163.545 222.571 163.532 222.148 163.694C221.733 163.86 221.42 164.18 221.209 164.655ZM225.511 172.478L224.316 171.947L227.631 164.491L228.826 165.022L228.451 165.866C228.77 165.641 229.113 165.509 229.481 165.471C229.851 165.425 230.226 165.487 230.606 165.656C231.045 165.851 231.404 166.137 231.682 166.515C231.964 166.886 232.13 167.319 232.181 167.814C232.232 168.31 232.133 168.839 231.883 169.402C231.632 169.964 231.306 170.393 230.904 170.687C230.502 170.981 230.067 171.151 229.6 171.197C229.136 171.236 228.685 171.158 228.247 170.963C227.866 170.794 227.568 170.56 227.35 170.262C227.136 169.957 227.005 169.61 226.959 169.222L225.511 172.478ZM230.655 168.856C230.879 168.351 230.901 167.897 230.722 167.493C230.546 167.082 230.253 166.786 229.843 166.604C229.617 166.503 229.366 166.466 229.092 166.493C228.82 166.512 228.56 166.606 228.309 166.775C228.059 166.944 227.858 167.2 227.705 167.544C227.552 167.888 227.497 168.209 227.539 168.508C227.581 168.807 227.684 169.067 227.848 169.289C228.016 169.503 228.213 169.661 228.439 169.762C228.849 169.944 229.263 169.966 229.683 169.829C230.106 169.684 230.43 169.36 230.655 168.856ZM232.616 169.728C232.847 169.209 233.167 168.804 233.576 168.513C233.993 168.226 234.455 168.063 234.962 168.026C235.479 167.985 235.994 168.078 236.505 168.305C237.024 168.536 237.438 168.856 237.747 169.265C238.059 169.666 238.244 170.116 238.302 170.615C238.368 171.117 238.285 171.627 238.055 172.146C237.827 172.658 237.503 173.061 237.083 173.356C236.674 173.647 236.214 173.814 235.704 173.859C235.197 173.896 234.684 173.799 234.165 173.569C233.653 173.341 233.238 173.025 232.919 172.62C232.61 172.212 232.423 171.756 232.357 171.254C232.302 170.748 232.388 170.239 232.616 169.728ZM233.833 170.269C233.625 170.737 233.597 171.184 233.749 171.61C233.911 172.033 234.204 172.338 234.628 172.527C235.06 172.719 235.483 172.732 235.898 172.566C236.316 172.393 236.629 172.073 236.837 171.605C237.049 171.13 237.077 170.683 236.922 170.263C236.767 169.844 236.474 169.539 236.042 169.347C235.618 169.159 235.195 169.145 234.773 169.308C234.358 169.473 234.044 169.794 233.833 170.269ZM242.07 167.825L242.97 168.225C242.898 168.386 242.885 168.581 242.932 168.812C242.988 169.039 243.174 169.222 243.488 169.362C243.81 169.505 244.07 169.52 244.269 169.407C244.472 169.287 244.609 169.146 244.68 168.985L245.59 169.39C245.47 169.661 245.287 169.886 245.04 170.065C244.805 170.24 244.523 170.343 244.195 170.372C243.874 170.404 243.52 170.334 243.132 170.162C242.752 169.993 242.463 169.777 242.265 169.514C242.067 169.251 241.954 168.973 241.926 168.68C241.902 168.381 241.95 168.096 242.07 167.825ZM241.506 170.66L240.223 173.544L245.097 171.798L242.684 177.225L241.522 176.708L242.809 173.814L237.919 175.566L240.333 170.138L241.506 170.66ZM254.228 176.317L251.985 181.361L250.823 180.844L252.593 176.864L250.455 175.913L248.685 179.894L247.523 179.377L249.765 174.333L254.228 176.317ZM254.235 179.341C254.466 178.822 254.786 178.417 255.195 178.127C255.612 177.839 256.074 177.677 256.581 177.639C257.098 177.598 257.613 177.691 258.125 177.919C258.644 178.15 259.057 178.469 259.366 178.878C259.678 179.279 259.863 179.729 259.921 180.228C259.987 180.73 259.904 181.24 259.674 181.759C259.446 182.271 259.122 182.674 258.702 182.969C258.293 183.26 257.833 183.428 257.323 183.472C256.816 183.509 256.303 183.413 255.784 183.182C255.273 182.954 254.857 182.638 254.538 182.234C254.229 181.825 254.042 181.37 253.977 180.868C253.921 180.362 254.008 179.853 254.235 179.341ZM255.452 179.882C255.244 180.35 255.216 180.797 255.368 181.224C255.53 181.646 255.823 181.952 256.247 182.14C256.679 182.332 257.102 182.345 257.517 182.179C257.935 182.006 258.249 181.686 258.457 181.218C258.668 180.743 258.696 180.296 258.541 179.877C258.386 179.458 258.093 179.152 257.661 178.96C257.237 178.772 256.814 178.759 256.392 178.921C255.977 179.087 255.664 179.407 255.452 179.882ZM261.217 179.425L264.408 180.844L263.945 181.886L262.936 181.437L261.156 185.439L259.994 184.922L261.774 180.92L260.754 180.467L261.217 179.425ZM263.551 183.484C263.782 182.965 264.102 182.56 264.511 182.269C264.928 181.982 265.39 181.819 265.897 181.782C266.414 181.741 266.929 181.834 267.44 182.061C267.959 182.292 268.373 182.612 268.682 183.02C268.994 183.422 269.179 183.872 269.237 184.37C269.303 184.872 269.22 185.383 268.99 185.902C268.762 186.414 268.438 186.817 268.018 187.112C267.609 187.402 267.149 187.57 266.639 187.615C266.132 187.652 265.619 187.555 265.1 187.324C264.588 187.097 264.173 186.781 263.854 186.376C263.545 185.968 263.358 185.512 263.292 185.01C263.237 184.504 263.323 183.995 263.551 183.484ZM264.768 184.025C264.56 184.493 264.532 184.94 264.684 185.366C264.846 185.789 265.139 186.094 265.563 186.283C265.995 186.474 266.418 186.487 266.833 186.322C267.251 186.149 267.564 185.829 267.772 185.361C267.984 184.886 268.012 184.438 267.857 184.019C267.702 183.6 267.408 183.295 266.977 183.103C266.553 182.914 266.13 182.901 265.708 183.064C265.293 183.229 264.979 183.55 264.768 184.025ZM276.004 186.001L273.761 191.044L272.599 190.528L274.354 186.58L272.063 185.561L271.088 187.754C270.821 188.354 270.475 188.729 270.048 188.881C269.622 189.033 269.054 188.951 268.345 188.636L268.823 187.561C269.042 187.659 269.253 187.687 269.455 187.645C269.668 187.6 269.849 187.409 269.998 187.073L271.388 183.948L276.004 186.001ZM276.133 189.078C276.363 188.559 276.684 188.154 277.093 187.864C277.51 187.576 277.972 187.414 278.478 187.377C278.996 187.335 279.51 187.428 280.022 187.656C280.541 187.887 280.955 188.206 281.264 188.615C281.575 189.016 281.76 189.466 281.819 189.965C281.885 190.467 281.802 190.978 281.571 191.497C281.344 192.008 281.02 192.412 280.6 192.706C280.19 192.997 279.731 193.165 279.221 193.209C278.714 193.247 278.201 193.15 277.682 192.919C277.17 192.691 276.755 192.375 276.436 191.971C276.127 191.562 275.94 191.107 275.874 190.605C275.819 190.099 275.905 189.59 276.133 189.078ZM277.35 189.619C277.142 190.087 277.114 190.534 277.265 190.961C277.428 191.383 277.721 191.689 278.145 191.877C278.576 192.069 278.999 192.082 279.415 191.917C279.833 191.744 280.146 191.423 280.354 190.955C280.565 190.48 280.594 190.033 280.438 189.614C280.283 189.195 279.99 188.889 279.559 188.698C279.135 188.509 278.712 188.496 278.289 188.658C277.874 188.824 277.561 189.144 277.35 189.619ZM283.772 189.455L284.935 189.972L284.145 191.748L286.788 190.796L288.235 191.439L285.138 192.557L286.212 196.581L284.775 195.942L283.833 192.45L282.692 195.015L281.53 194.499L283.772 189.455Z" fill="white"/>
<path d="M130.157 165.704C129.969 165.185 129.937 164.712 130.062 164.283C130.18 163.857 130.423 163.484 130.792 163.163C131.155 162.852 131.615 162.595 132.172 162.393L134.687 161.479L137.555 169.374L135.176 170.239C134.424 170.512 133.755 170.568 133.168 170.407C132.585 170.253 132.171 169.841 131.928 169.172C131.783 168.773 131.769 168.395 131.886 168.038C132.006 167.688 132.232 167.372 132.563 167.09C132.028 167.14 131.542 167.056 131.106 166.84C130.673 166.632 130.357 166.253 130.157 165.704ZM134.868 169.112L135.827 168.764L135.073 166.689L134.114 167.037C133.746 167.171 133.478 167.37 133.31 167.635C133.146 167.908 133.122 168.206 133.239 168.529C133.36 168.86 133.569 169.074 133.868 169.169C134.166 169.265 134.5 169.246 134.868 169.112ZM133.754 163.057L132.648 163.459C132.197 163.622 131.865 163.867 131.65 164.191C131.439 164.523 131.413 164.908 131.571 165.344C131.727 165.772 131.99 166.038 132.359 166.142C132.729 166.246 133.14 166.217 133.591 166.053L134.696 165.651L133.754 163.057ZM130.633 168.825L127.35 170.018L126.961 168.947L127.999 168.57L126.503 164.453L127.699 164.018L129.194 168.135L130.243 167.754L130.633 168.825ZM126.136 167.523C126.33 168.057 126.38 168.57 126.287 169.064C126.186 169.56 125.967 169.997 125.628 170.376C125.284 170.765 124.849 171.055 124.322 171.246C123.788 171.44 123.269 171.497 122.763 171.417C122.26 171.344 121.814 171.149 121.426 170.83C121.03 170.514 120.736 170.089 120.542 169.555C120.35 169.029 120.304 168.514 120.402 168.01C120.495 167.517 120.709 167.077 121.046 166.691C121.385 166.312 121.821 166.026 122.355 165.832C122.882 165.641 123.4 165.58 123.91 165.65C124.416 165.73 124.867 165.928 125.263 166.244C125.653 166.57 125.945 166.996 126.136 167.523ZM124.884 167.978C124.709 167.496 124.419 167.155 124.014 166.953C123.604 166.762 123.181 166.745 122.744 166.904C122.301 167.065 121.987 167.349 121.803 167.756C121.622 168.171 121.619 168.619 121.794 169.101C121.971 169.589 122.261 169.931 122.664 170.125C123.066 170.319 123.489 170.336 123.933 170.175C124.369 170.016 124.683 169.732 124.874 169.322C125.058 168.914 125.061 168.466 124.884 167.978ZM116.357 165.33L117.587 164.884L120.373 172.553L119.144 173L118.829 172.131C118.755 172.515 118.6 172.849 118.362 173.131C118.127 173.42 117.813 173.636 117.423 173.778C116.971 173.942 116.514 173.985 116.052 173.906C115.592 173.835 115.171 173.639 114.791 173.317C114.41 172.996 114.115 172.546 113.904 171.967C113.694 171.388 113.632 170.853 113.717 170.362C113.803 169.872 113.998 169.448 114.302 169.09C114.609 168.74 114.988 168.484 115.439 168.32C115.83 168.178 116.207 168.138 116.571 168.202C116.937 168.273 117.272 168.433 117.575 168.68L116.357 165.33ZM115.168 171.508C115.356 172.027 115.655 172.369 116.064 172.535C116.476 172.709 116.893 172.72 117.314 172.567C117.547 172.482 117.753 172.335 117.932 172.125C118.114 171.923 118.237 171.674 118.3 171.379C118.363 171.083 118.33 170.759 118.202 170.406C118.073 170.052 117.89 169.783 117.652 169.597C117.414 169.411 117.16 169.295 116.887 169.249C116.618 169.21 116.367 169.234 116.134 169.318C115.713 169.471 115.399 169.743 115.192 170.133C114.987 170.531 114.979 170.989 115.168 171.508ZM113.15 172.241C113.344 172.775 113.394 173.289 113.301 173.782C113.201 174.278 112.981 174.716 112.642 175.094C112.298 175.483 111.863 175.773 111.336 175.964C110.803 176.158 110.283 176.215 109.777 176.135C109.274 176.062 108.828 175.867 108.44 175.548C108.045 175.232 107.75 174.807 107.556 174.274C107.365 173.747 107.318 173.232 107.416 172.729C107.509 172.235 107.724 171.795 108.06 171.409C108.399 171.031 108.836 170.744 109.369 170.55C109.896 170.359 110.414 170.299 110.925 170.368C111.43 170.449 111.881 170.646 112.277 170.962C112.668 171.288 112.959 171.715 113.15 172.241ZM111.898 172.696C111.723 172.215 111.433 171.873 111.028 171.672C110.618 171.48 110.195 171.464 109.759 171.622C109.315 171.783 109.001 172.067 108.817 172.475C108.636 172.89 108.633 173.338 108.808 173.819C108.985 174.308 109.275 174.649 109.678 174.843C110.08 175.037 110.503 175.054 110.947 174.893C111.383 174.734 111.697 174.45 111.888 174.04C112.072 173.633 112.076 173.185 111.898 172.696ZM107.663 180.172L106.738 180.508C106.678 180.342 106.551 180.193 106.358 180.059C106.159 179.935 105.899 179.932 105.575 180.049C105.244 180.169 105.047 180.339 104.982 180.559C104.919 180.785 104.918 180.982 104.978 181.147L104.042 181.487C103.941 181.209 103.917 180.92 103.97 180.62C104.018 180.33 104.15 180.061 104.366 179.812C104.574 179.566 104.878 179.371 105.276 179.226C105.667 179.084 106.025 179.039 106.351 179.091C106.676 179.143 106.95 179.265 107.173 179.456C107.398 179.655 107.562 179.894 107.663 180.172ZM106.102 177.738L105.024 174.772L102.726 179.412L100.698 173.829L101.893 173.394L102.975 176.372L105.28 171.717L107.309 177.3L106.102 177.738ZM93.0155 182.493L91.1305 177.305L92.326 176.871L93.8135 180.965L96.0129 180.166L94.5253 176.072L95.7209 175.637L97.6059 180.825L93.0155 182.493ZM90.9122 180.321C91.1061 180.855 91.1566 181.368 91.0635 181.862C90.9629 182.358 90.743 182.795 90.4039 183.174C90.06 183.563 89.6249 183.853 89.0986 184.044C88.5647 184.238 88.0449 184.295 87.5392 184.215C87.0361 184.142 86.5906 183.947 86.2024 183.628C85.8068 183.312 85.512 182.887 85.318 182.353C85.1268 181.827 85.0801 181.312 85.1779 180.808C85.271 180.315 85.4858 179.875 85.8221 179.489C86.1612 179.111 86.5977 178.824 87.1316 178.63C87.6579 178.439 88.1764 178.378 88.6869 178.448C89.1927 178.528 89.6434 178.726 90.039 179.042C90.4299 179.368 90.7209 179.795 90.9122 180.321ZM89.6603 180.776C89.4854 180.295 89.1954 179.953 88.7901 179.751C88.3801 179.56 87.957 179.543 87.5209 179.702C87.0773 179.863 86.7635 180.147 86.5795 180.555C86.3983 180.969 86.3951 181.417 86.5699 181.899C86.7475 182.387 87.0375 182.729 87.4401 182.923C87.8426 183.117 88.2657 183.134 88.7093 182.973C89.1454 182.814 89.4592 182.53 89.6507 182.12C89.8346 181.713 89.8378 181.265 89.6603 180.776ZM85.8266 185.105L82.5445 186.298L82.1552 185.226L83.1928 184.849L81.6971 180.733L82.8926 180.298L84.3883 184.415L85.4373 184.034L85.8266 185.105ZM81.3298 183.803C81.5237 184.336 81.5742 184.85 81.4811 185.344C81.3805 185.84 81.1606 186.277 80.8215 186.656C80.4776 187.044 80.0425 187.334 79.5162 187.526C78.9823 187.72 78.4625 187.777 77.9568 187.697C77.4537 187.624 77.0082 187.428 76.62 187.11C76.2244 186.794 75.9296 186.369 75.7356 185.835C75.5444 185.309 75.4977 184.794 75.5955 184.29C75.6886 183.797 75.9034 183.357 76.2397 182.971C76.5788 182.592 77.0153 182.306 77.5492 182.112C78.0755 181.921 78.5939 181.86 79.1045 181.93C79.6103 182.01 80.061 182.208 80.4566 182.524C80.8475 182.85 81.1385 183.276 81.3298 183.803ZM80.0778 184.257C79.903 183.776 79.613 183.435 79.2077 183.233C78.7977 183.042 78.3746 183.025 77.9385 183.183C77.4949 183.345 77.1811 183.629 76.9971 184.036C76.8159 184.451 76.8127 184.899 76.9875 185.38C77.1651 185.869 77.4551 186.21 77.8577 186.405C78.2602 186.599 78.6833 186.615 79.1269 186.454C79.563 186.296 79.8768 186.012 80.0683 185.602C80.2522 185.194 80.2554 184.746 80.0778 184.257ZM70.6161 190.632L68.7311 185.444L69.9266 185.009L71.4019 189.07L73.7591 188.213L72.9395 185.957C72.7155 185.341 72.7043 184.83 72.9061 184.425C73.1078 184.019 73.5734 183.684 74.3027 183.419L74.7043 184.525C74.4787 184.606 74.3075 184.733 74.1906 184.903C74.0689 185.083 74.0708 185.346 74.1965 185.692L75.3644 188.907L70.6161 190.632ZM68.388 188.505C68.582 189.039 68.6324 189.552 68.5394 190.046C68.4387 190.542 68.2189 190.979 67.8798 191.358C67.5359 191.747 67.1008 192.037 66.5744 192.228C66.0406 192.422 65.5208 192.479 65.015 192.399C64.512 192.326 64.0664 192.131 63.6783 191.812C63.2826 191.496 62.9878 191.071 62.7938 190.537C62.6026 190.011 62.5559 189.496 62.6538 188.992C62.7469 188.499 62.9616 188.059 63.298 187.673C63.6371 187.294 64.0736 187.008 64.6074 186.814C65.1338 186.623 65.6522 186.562 66.1627 186.632C66.6685 186.712 67.1192 186.91 67.5149 187.226C67.9057 187.552 68.1968 187.978 68.388 188.505ZM67.1361 188.96C66.9613 188.478 66.6712 188.137 66.2659 187.935C65.8559 187.744 65.4328 187.727 64.9967 187.886C64.5531 188.047 64.2393 188.331 64.0553 188.738C63.8741 189.153 63.8709 189.601 64.0458 190.083C64.2233 190.571 64.5134 190.913 64.9159 191.107C65.3184 191.301 65.7415 191.318 66.1851 191.156C66.6212 190.998 66.935 190.714 67.1265 190.304C67.3105 189.896 67.3137 189.448 67.1361 188.96ZM62.6257 193.535L61.4302 193.969L60.7663 192.142L59.5241 194.662L58.0353 195.203L59.4898 192.249L55.9247 190.097L57.4022 189.56L60.504 191.42L59.5451 188.781L60.7406 188.347L62.6257 193.535Z" fill="#525458"/>
<defs>
<filter id="filter0_i_103_315" x="28.5" y="0" width="295" height="295" filterUnits="userSpaceOnUse" color-interpolation-filters="sRGB">
<feFlood flood-opacity="0" result="BackgroundImageFix"/>
<feBlend mode="normal" in="SourceGraphic" in2="BackgroundImageFix" result="shape"/>
<feColorMatrix in="SourceAlpha" type="matrix" values="0 0 0 0 0 0 0 0 0 0 0 0 0 0 0 0 0 0 127 0" result="hardAlpha"/>
<feOffset dx="5" dy="5"/>
<feGaussianBlur stdDeviation="2.5"/>
<feComposite in2="hardAlpha" operator="arithmetic" k2="-1" k3="1"/>
<feColorMatrix type="matrix" values="0 0 0 0 0 0 0 0 0 0 0 0 0 0 0 0 0 0 0.25 0"/>
<feBlend mode="normal" in2="shape" result="effect1_innerShadow_103_315"/>
</filter>
<filter id="filter1_i_103_315" x="168.5" y="140" width="15" height="15" filterUnits="userSpaceOnUse" color-interpolation-filters="sRGB">
<feFlood flood-opacity="0" result="BackgroundImageFix"/>
<feBlend mode="normal" in="SourceGraphic" in2="BackgroundImageFix" result="shape"/>
<feColorMatrix in="SourceAlpha" type="matrix" values="0 0 0 0 0 0 0 0 0 0 0 0 0 0 0 0 0 0 127 0" result="hardAlpha"/>
<feOffset dx="5" dy="5"/>
<feGaussianBlur stdDeviation="2.5"/>
<feComposite in2="hardAlpha" operator="arithmetic" k2="-1" k3="1"/>
<feColorMatrix type="matrix" values="0 0 0 0 0 0 0 0 0 0 0 0 0 0 0 0 0 0 0.25 0"/>
<feBlend mode="normal" in2="shape" result="effect1_innerShadow_103_315"/>
</filter>
<linearGradient id="paint0_linear_103_315" x1="173" y1="73" x2="274.47" y2="73" gradientUnits="userSpaceOnUse">
<stop stop-color="#0171FE"/>
<stop offset="1" stop-color="#3BC1FE"/>
</linearGradient>
<linearGradient id="paint1_linear_103_315" x1="222.979" y1="194.979" x2="295.063" y2="122.896" gradientUnits="userSpaceOnUse">
<stop stop-color="#0171FE"/>
<stop offset="1" stop-color="#3BC1FE"/>
</linearGradient>
<linearGradient id="paint2_linear_103_315" x1="122.25" y1="93.7499" x2="50.4174" y2="165.582" gradientUnits="userSpaceOnUse">
<stop stop-color="#0171FE"/>
<stop offset="1" stop-color="#3BC1FE"/>
</linearGradient>
<linearGradient id="paint3_linear_103_315" x1="173" y1="215.5" x2="71.0279" y2="215.5" gradientUnits="userSpaceOnUse">
<stop stop-color="#0171FE"/>
<stop offset="1" stop-color="#3BC1FE"/>
</linearGradient>
<linearGradient id="paint4_linear_103_315" x1="282.25" y1="232" x2="50.25" y2="65.25" gradientUnits="userSpaceOnUse">
<stop stop-color="#525458"/>
<stop offset="1" stop-color="#9E9E9E"/>
</linearGradient>
<linearGradient id="paint5_linear_103_315" x1="173.5" y1="140" x2="173.5" y2="150" gradientUnits="userSpaceOnUse">
<stop stop-color="#838893"/>
<stop offset="1" stop-color="#525458"/>
</linearGradient>
</defs>
</svg>
